
<svg width="1440" height="890" xmlns="http://www.w3.org/2000/svg">
    <g fill="none" fill-rule="evenodd">
        <path fill="#265072" d="M0 0h1440v890H0z"/>
        <g fill="#1E4666">
            <path d="M252.926 537.428l4.988-.349.349 4.988-4.988.349zM311.538 458.146l4.988-.348.35 4.987-4.989.35zM281.744 562.479l4.988-.349.348 4.988-4.987.349zM340.426 484.195l4.988-.35.348 4.989-4.987.349zM262.065 524.76l4.987-.35.35 4.989-4.989.349zM320.677 445.478l4.988-.349.349 4.988-4.988.349zM291.88 549.74l4.988-.348.349 4.988-4.988.349zM350.492 470.459l4.988-.349.349 4.988-4.988.349zM236.937 509.475l4.988-.349.349 4.988-4.988.35zM295.55 430.194l4.987-.35.35 4.989-4.989.348zM265.755 534.526l4.988-.349.349 4.988-4.988.349zM324.437 456.242l4.988-.349.349 4.988-4.988.349zM263.523 502.604l4.988-.349.348 4.988-4.987.349zM322.135 423.322l4.988-.348.349 4.987-4.988.35zM293.408 528.583l4.988-.35.348 4.989-4.988.348zM352.02 449.3l4.988-.348.349 4.988-4.988.349zM313.031 508.164l4.988-.349.349 4.988-4.988.349zM371.713 429.88l4.988-.349.349 4.988-4.988.349zM342.916 534.143l4.988-.35.349 4.989-4.988.348zM401.529 454.86l4.987-.348.35 4.988-4.989.349zM325.483 471.205l4.988-.348.349 4.987-4.988.35zM385.093 391.854l4.988-.349.349 4.988-4.988.349zM355.299 496.186l4.987-.348.35 4.987-4.989.35zM413.911 416.905l4.988-.35.349 4.989-4.988.349zM673.822 187.19l4.988-.348.349 4.988-4.988.348zM657.094 167.333l4.988-.349.349 4.988-4.988.349zM634.932 209.967l4.988-.349.349 4.988-4.988.349zM698.19 224.606l4.987-.349.349 4.988-4.988.349zM206.41 531.659l4.988-.349.349 4.988-4.988.349zM265.023 452.377l4.988-.349.348 4.988-4.987.349zM235.228 556.71l4.988-.35.349 4.989-4.988.348zM293.84 477.428l4.988-.349.349 4.988-4.988.349zM195.095 570.543l4.988-.349.349 4.988-4.988.349zM253.708 491.261l4.987-.349.35 4.988-4.989.349zM223.913 595.594l4.988-.35.348 4.989-4.987.348zM283.593 517.24l4.987-.35.35 4.989-4.989.349z"/>
        </g>
        <g fill="#BDE1F5">
            <path d="M248.936 537.707l4.988-.349.348 4.988-4.987.349zM307.548 458.425l4.988-.348.349 4.987-4.988.35zM277.754 562.758l4.987-.349.35 4.988-4.989.349zM336.436 484.474l4.987-.35.35 4.989-4.989.349zM258.074 525.039l4.988-.349.349 4.988-4.988.349zM316.687 445.757l4.988-.349.348 4.988-4.987.349zM287.89 550.02l4.987-.349.35 4.988-4.989.349zM346.502 470.738l4.988-.349.349 4.988-4.988.349zM232.947 509.754l4.988-.348.349 4.987-4.988.35zM291.56 430.473l4.987-.35.349 4.989-4.988.348zM261.765 534.805l4.988-.349.348 4.988-4.988.349zM320.447 456.521l4.988-.349.348 4.988-4.987.349zM259.532 502.883l4.988-.349.35 4.988-4.989.349zM318.145 423.601l4.988-.348.348 4.987-4.987.35zM289.417 528.862l4.988-.35.35 4.989-4.989.348zM348.03 449.58l4.988-.349.348 4.988-4.987.349zM309.04 508.443l4.989-.349.349 4.988-4.988.349zM367.723 430.159l4.988-.349.349 4.988-4.988.349zM338.926 534.422l4.988-.35.348 4.989-4.987.348zM397.538 455.14l4.988-.349.349 4.988-4.988.349zM321.493 471.484l4.988-.348.349 4.987-4.988.35zM381.103 392.133l4.988-.349.349 4.988-4.988.349zM351.308 496.465l4.988-.348.349 4.988-4.988.348zM409.92 417.184l4.989-.349.348 4.988-4.987.349zM669.832 187.47l4.988-.35.348 4.989-4.987.349zM653.104 167.612l4.988-.349.348 4.988-4.987.349zM631.94 210.176l4.987-.349.349 4.988-4.988.35zM694.2 224.885l4.987-.349.349 4.988-4.988.349zM202.42 531.938l4.988-.349.349 4.988-4.988.349zM261.032 452.656l4.988-.349.35 4.988-4.989.349zM231.238 556.989l4.988-.35.348 4.989-4.987.348zM289.85 477.707l4.988-.349.349 4.988-4.988.349zM191.105 570.822l4.988-.349.349 4.988-4.988.349zM249.717 491.54l4.988-.349.349 4.988-4.988.349zM219.923 595.873l4.987-.35.35 4.989-4.989.348zM279.602 517.519l4.988-.35.349 4.989-4.988.349z"/>
        </g>
        <path d="M-4.97 762.967l184.585-146.504a100 100 0 0 0 24.367-28.21l17.464-30.155a100 100 0 0 1 39.063-37.897l41.6-22.437a77.303 77.303 0 0 0 24.756-21.142h0a55.328 55.328 0 0 1 25.83-18.7l7.759-2.695a72.744 72.744 0 0 0 37.068-28.987l37.319-57.237a100 100 0 0 0 4.668-7.935l61.019-115.6a100 100 0 0 1 73.165-52.146l279.835-43.24a100 100 0 0 0 25.9-7.696C1215.772-9.57 1417.629-102.697 1485-137l-570-98" stroke="#4B7994" stroke-width="2"/>
        <path d="M1355-52c-79 12-243 111-254 257-7.333 97.333-72.908 159.185-196.723 185.554l-115.439 16.005a100 100 0 0 0-79.093 61.864l-14.893 37.174a100 100 0 0 1-38.213 46.58l-68.61 44.732c-27.483 17.918-40.08 51.654-31.07 83.2l7.126 24.944a100 100 0 0 1-.35 56.131l-30.134 100.72-77.89 167.384" stroke="#193B57" stroke-width="18"/>
        <path d="M158.844 632.723l15.83-11.471a100 100 0 0 0 27.713-30.615l19.066-32.709a100 100 0 0 1 38.923-37.655l41.732-22.51a77.303 77.303 0 0 0 24.757-21.14h0a55.328 55.328 0 0 1 25.83-18.7l7.759-2.696a73.041 73.041 0 0 0 37.12-28.953l28.036-42.767M625.845 184.988L716 171.5" stroke="#6B99B4" stroke-width="2"/>
        <g>
            <path d="M1177.085 267h-53.9S1109 353.488 1109 461.42c0 107.93 14.184 110.79 0 221.58l100-55.753L1177.085 267z" fill="#4B7994"/>
            <path fill="#71A0BA" d="M1422 125.773L1410.21 190 1394 120zM1138-375.787l4.702-43.213 32.43 34.344L2156 365.646 2142.339 369z"/>
            <path fill="#AFDBE8" d="M2142.692 368.389l13.661-3.357.647.492V461l-513.184-262.559-224.16-63.971-271.854-28.643-17.17-17.186L1123-235.98 1138.33-377z"/>
            <path d="M1170.035 261c-5.62 21.471-13.21 66.477-8.626 144.286 6.9 117.143 40.16 250.714 40.16 250.714H1210V261h-39.965z" fill="#71A0BA"/>
            <path d="M1293.084 261H1208v395H1261.924s32.865-133.571 39.684-250.714c4.53-77.809-2.974-122.815-8.524-144.286" fill="#AFDBE8"/>
            <path fill="#D7F3FC" d="M1249 245h19.476l2.524 16h-22z"/>
            <path fill="#71A0BA" d="M1272.172 245l2.828 16h-5.634L1267 245zM1286.747 245s2.373 4.951 5.253 16h-13.593L1275 245h11.747z"/>
            <path fill="#D7F3FC" d="M1271 245h5.613l4.387 16h-6.216z"/>
            <path fill="#71A0BA" d="M1250 245v16h-6.634l-.366-16z"/>
            <path fill="#D7F3FC" d="M1244.55 245l.45 16h-7v-16z"/>
            <path d="M1174.117 245H1240v16h-71c2.805-11.049 5.117-16 5.117-16" fill="#71A0BA"/>
            <path d="M920.915 267h53.9S989 353.488 989 461.42c0 107.93-14.184 110.79 0 221.58l-100-55.753L920.915 267zM218 309.506L228.645 354 240 293zM455 187.186L465.15 256 484 175zM675 125.773L686.79 190 703 120z" fill="#4B7994"/>
            <path fill="#7195A8" d="M-45.153 337.437L-61 351.897-59.454 461l512.913-262.559L677.5 134.47l271.711-28.643 17.161-17.186L974-235.98 958.678-377z"/>
            <path fill="#7195A8" d="M975-382.869L955.61-420l-32.435 34.355L-47 339.645-33.334 343z"/>
            <path d="M939-931.516c0 11.95 8.628 389.361 8.628 1131.058 0 426.652 54.645 531.167 74.777 598.458h25.166L1053-1236c-11.01 3.9-47.431 33.849-78.53 124.087-33.555 97.357-34.694 162.174-35.47 180.397z" fill="#7195A8"/>
            <path d="M1048.773-1236c-1.03 74.987-1.03 753.32 0 2035h25c20.088-67.324 74.613-171.89 74.613-598.753 0-742.06 8.609-1131.614 8.609-1131.614s1.178-83.08-32.303-180.485c-22.269-59.87-47.575-101.254-75.919-124.148z" fill="#AFDBE8"/>
            <path d="M802.892 261c-5.54 21.471-13.022 66.477-8.503 144.286C801.19 522.429 833.96 656 833.96 656h62.079s32.768-133.571 39.574-250.714c4.516-77.809-2.969-122.815-8.503-144.286H802.892z" fill="#7195A8"/>
            <path fill="#71A0BA" d="M848 245h-19.104L827 261h21z"/>
            <path fill="#4B7994" d="M824.828 245L822 261h5.634L830 245zM809.253 245s-2.373 4.951-5.253 16h13.593L821 245h-11.747z"/>
            <path fill="#71A0BA" d="M827 245h-6.25L817 261h6.216z"/>
            <path fill="#4B7994" d="M848 245v16h5.686l.314-16z"/>
            <path fill="#71A0BA" d="M853.32 245l-.32 16h5v-16z"/>
            <path d="M923.883 245H858v16h71c-2.808-11.049-5.117-16-5.117-16" fill="#4B7994"/>
            <path d="M961 129.52l-.045-16.095c-.012-4.666-3.857-8.439-8.59-8.425l-4.365.011c.011 10.91.023 21.908.028 32.989l4.427-.014c4.731-.011 8.56-3.801 8.545-8.467M1136 129.52l.045-16.095c.015-4.666 3.86-8.439 8.59-8.425l4.365.011c-.011 10.91-.02 21.908-.026 32.989l-4.427-.014c-4.73-.011-8.558-3.801-8.547-8.467" fill="#FFF"/>
            <path d="M1049 771.351V742h-6.453l-354.2 307.927s-3.266 1.64-7.347 7.068l14.406 8.005L1049 771.351z" fill="#4B7994"/>
            <path d="M695.572 1064.76l-14.4-7.98c-6.043 8.014-13.877 24.319-15.589 55.925C662.717 1165.66 662 1195 662 1195l387-206.094V772l-353.428 292.76z" fill="#688DA1"/>
            <path d="M1049 771.351V742h6.453l354.2 307.927s3.266 1.64 7.347 7.068l-14.406 8.005L1049 771.351z" fill="#71A0BA"/>
            <path d="M1402.428 1064.76l14.4-7.98c6.043 8.014 13.877 24.319 15.589 55.925C1435.283 1165.66 1436 1195 1436 1195l-387-206.094V772l353.428 292.76z" fill="#AFDBE8"/>
            <path d="M1071 536.127c0-71.506-11.48-161.127-22-161.127v655s15.305-122.039 15.305-192.593c0-70.551-7.654-121.083-7.654-121.083S1071 607.634 1071 536.127" fill="#CBE9F1"/>
            <path d="M1027 536.127c0 71.507 14.347 180.197 14.347 180.197s-7.653 50.532-7.653 121.083C1033.694 907.961 1049 1030 1049 1030V375c-10.522 0-22 89.62-22 161.127" fill="#688DA1"/>
            <path fill="#71A0BA" d="M1052.09 716.039l7.065-168.317L1049 542v216l11-2.78z"/>
        </g>
    </g>
</svg>
