<?xml version="1.0" encoding="UTF-8"?>
<svg width="63px" height="23px" viewBox="0 0 63 23" version="1.1" xmlns="http://www.w3.org/2000/svg" xmlns:xlink="http://www.w3.org/1999/xlink">
    <!-- Generator: Sketch 51.1 (57501) - http://www.bohemiancoding.com/sketch -->
    <title>Shape</title>
    <desc>Created with Sketch.</desc>
    <defs></defs>
    <g id="Symbols" stroke="none" stroke-width="1" fill="none" fill-rule="evenodd">
        <g id="Footer" transform="translate(-410.000000, -243.000000)" fill="#AAA59C" fill-rule="nonzero">
            <g id="Group-2" transform="translate(125.000000, 238.000000)">
                <path d="M285,5 L285,27.1030606 L317.272523,27.1030606 C319.554718,19.7338523 321.91679,12.3829015 324.219525,5.01825756 C311.142546,5 298.070132,5.02053976 285,5 Z M297.301032,20.8795143 L297.529252,20.4778479 C297.072813,19.309364 296.534215,18.1705486 296.08234,16.9975002 C294.856801,16.9792427 293.633544,16.9975002 292.410288,16.9975002 C291.953849,18.1043649 291.479152,19.2066652 291.018149,20.3112477 C290.920014,20.5120809 291.068357,20.6992209 291.129976,20.8840787 C290.74885,20.8681033 290.367723,20.8840787 289.988879,20.8840787 C290.212657,20.6994423 290.390081,20.4649611 290.506937,20.1994201 C291.648035,17.5064298 292.811954,14.820286 293.953052,12.1272957 C294.133345,11.7963773 293.8572,11.4814344 293.697446,11.2144176 L294.039775,10.7237456 C295.409092,14.1105233 296.812642,17.4927366 298.172831,20.8840787 C297.876145,20.8840787 297.588589,20.8840787 297.29875,20.8840787 L297.301032,20.8795143 Z M298.553957,20.8795143 C297.125303,17.4562215 295.740011,14.0329287 294.313639,10.6096358 C294.163014,10.342619 294.439159,10.1075529 294.541858,9.87705117 C295.956819,13.300344 297.346676,16.7236368 298.759355,20.1286721 C298.903057,20.4269959 299.114921,20.6873315 299.37783,20.8886431 C299.101684,20.8886431 298.830103,20.8635389 298.563086,20.8886431 L298.553957,20.8795143 Z M301.089476,20.8795143 C300.822459,20.8795143 300.55316,20.8954897 300.286144,20.8795143 C300.623908,20.6649879 300.612497,20.1948557 300.651295,19.8548086 L300.651295,11.6183661 C300.651295,11.1915956 300.612497,10.7442854 300.299837,10.4224958 L301.084912,10.4224958 C301.084912,13.9051257 301.084912,17.3877556 301.084912,20.8703855 L301.089476,20.8795143 Z M307.347256,20.8795143 C306.352612,20.3695805 305.446427,19.7030413 304.663394,18.9054154 C303.946813,18.1048934 303.304401,17.240959 302.744068,16.3242527 L301.92476,16.3242527 L301.92476,20.1469296 C301.92476,20.4253575 302.089078,20.6512948 302.194059,20.8977719 L301.48886,20.8977719 L301.48886,10.4339068 C302.280782,10.4521644 303.086397,10.2558956 303.864626,10.4339068 C304.642854,10.611918 305.325231,11.2349573 305.754283,11.9013583 C306.237455,12.7503027 306.237455,13.7910482 305.754283,14.6399926 C305.379709,15.2924807 304.800615,15.8033991 304.106538,16.0937509 C304.833242,17.2007739 305.648365,18.2471543 306.543923,19.2226406 C307.214888,19.9803294 308.011374,20.6604236 308.979025,21.0004706 C308.444991,21.0438324 307.837928,21.1716353 307.344973,20.8635389 L307.347256,20.8795143 Z M317.388914,20.6284728 C315.816482,21.0712187 314.095707,21.2788985 312.51871,20.735736 C311.078205,20.2572232 309.913853,19.1810292 309.323637,17.7825754 C308.686904,16.2010141 308.746241,14.270277 309.725303,12.8370584 C310.64597,11.4775571 312.094893,10.5668056 313.719145,10.3266436 C314.890979,10.1516055 316.086973,10.2365328 317.222314,10.5754029 C317.5372,10.6811373 317.870347,10.7215188 318.201376,10.6940771 C318.289503,11.0654451 318.34826,11.4431739 318.377105,11.8237637 C317.370657,10.8561129 315.86669,10.5571453 314.524759,10.72831 C313.09533,10.903344 311.806405,11.6742125 310.975946,12.8507515 C310.15892,14.0215177 309.990038,15.5551529 310.330085,16.9199056 C310.673615,18.1921435 311.508512,19.2757854 312.651077,19.9324033 C313.966596,20.6650627 315.535314,20.7907933 316.950733,20.2770148 C316.971273,19.122224 316.950733,17.9674332 316.950733,16.8126424 C316.97799,16.4455837 316.859969,16.0825066 316.622097,15.8016299 L317.409454,15.778808 C317.400325,17.3900378 317.396522,19.0027891 317.398043,20.6170618 L317.388914,20.6284728 Z M318.20594,20.466437 L317.770041,20.537185 C317.786016,18.9624703 317.770041,17.3854734 317.770041,15.8084765 L318.54827,15.8084765 C318.395363,16.0366961 318.201376,16.2649156 318.201376,16.5433434 C318.201376,17.8305015 318.221916,19.1404815 318.201376,20.4481794 L318.20594,20.466437 Z M304.816301,13.6723418 C304.99203,12.5974279 304.382684,11.4038398 303.346567,11.0135844 C302.890128,10.8150334 302.397174,10.8675239 301.920195,10.8515485 L301.920195,15.872378 C302.330327,15.8949201 302.741239,15.8454871 303.134323,15.7263175 C304.02899,15.4015804 304.674359,14.613477 304.816301,13.6723418 Z M309.875928,14.2269152 C310.104147,13.2683933 310.745444,12.4719071 311.368484,11.7347581 C310.063032,12.6646959 309.30166,14.1798198 309.33454,15.7822892 C309.367421,17.3847585 310.190302,18.8673757 311.532802,19.7429811 C310.549175,18.7981523 309.807462,17.5338161 309.738996,16.1485236 C309.727585,15.498098 309.681941,14.843108 309.875928,14.2269152 Z M303.647817,16.2420936 L303.2142,16.2603512 C303.691179,16.8765439 304.127078,17.5178407 304.629161,18.1203403 C305.290998,18.9807279 306.181054,19.6265891 307.025466,20.2952723 C305.731321,19.0938009 304.596222,17.7316819 303.647817,16.2420936 Z M304.3165,15.5414597 C305.099293,15.0576343 305.704075,14.1949645 305.662995,13.2592645 C305.694946,12.330411 305.053649,11.5088208 304.252599,11.1003078 C304.783532,11.5498616 305.141066,12.170501 305.263611,12.8553159 C305.400842,13.8511705 305.04799,14.8519085 304.3165,15.5414597 Z M295.872378,16.5547544 C295.372577,15.1854372 294.788335,13.8366599 294.290817,12.4604962 C293.717986,13.8298133 293.149719,15.1991304 292.581453,16.5547544 C293.688317,16.55019 294.783771,16.5547544 295.881507,16.5547544 L295.872378,16.5547544 Z M326.2735,5 C326.12744,5.56370222 325.926607,6.11142907 325.766853,6.6705669 C323.612461,13.4829196 321.515123,20.2907079 319.340191,27.1007785 L347.790037,27.1007785 L347.790037,5 C340.61938,5.01065024 333.447201,5.01065024 326.2735,5 Z M333.964498,20.8635389 L333.535446,20.8635389 L333.535446,19.5170438 C333.010111,20.0239864 332.39887,20.4335411 331.730229,20.7266072 C330.520724,21.1924788 329.172739,21.139649 328.003404,20.5805467 C326.948083,19.9962664 326.212081,18.9677086 325.999637,17.7802932 C325.86727,17.1504073 325.91976,16.5045461 325.912914,15.8678136 C325.912914,14.3615648 325.926607,12.8575981 325.912914,11.3513493 C325.950722,10.9982273 325.809386,10.6496003 325.536351,10.4224958 L326.376199,10.4224958 L326.376199,16.8263356 C326.401303,17.7917042 326.604419,18.8209742 327.289077,19.5512767 C327.973736,20.2815792 328.925411,20.6102153 329.87024,20.7151962 C329.06919,20.5120809 328.272703,20.174316 327.711283,19.5330191 C327.074551,18.8483606 326.798405,17.8875564 326.748197,16.9632673 L326.748197,10.4179314 L327.526426,10.4179314 C327.319987,10.6270524 327.204357,10.9091556 327.204636,11.2030066 L327.204636,16.9564207 C327.236587,17.7643178 327.432856,18.6247054 327.99884,19.2386159 C328.802173,20.0898748 330.032276,20.5896755 331.193913,20.3409162 C332.106791,20.1492118 332.869045,19.5855096 333.528599,18.9715991 C333.542292,16.4315158 333.528599,13.8914326 333.528599,11.3513493 C333.53762,11.0132608 333.412975,10.6852493 333.181705,10.4384712 L333.964498,10.4384712 C333.964498,13.9005613 333.982756,17.3877556 333.964498,20.8726677 L333.964498,20.8635389 Z M334.792935,19.9734828 C334.803732,20.2908676 334.902497,20.5990117 335.07821,20.8635389 L334.363882,20.8635389 C334.341061,17.3786268 334.363882,13.8959969 334.363882,10.4088027 L335.117007,10.4088027 C334.908698,10.6668705 334.797995,10.9900919 334.804346,11.3216807 C334.804346,14.204854 334.804346,17.088788 334.804346,19.9734828 L334.792935,19.9734828 Z M341.30632,20.4504616 C340.486072,21.0214199 339.451042,21.1893079 338.492374,20.9069006 C337.880745,20.7859443 337.335301,20.3226587 336.684875,20.4504616 L336.684875,19.1039664 C337.278246,20.0738994 338.414779,20.7562758 339.574134,20.5577248 C340.327259,20.4504616 340.824777,19.7429811 340.943451,19.0355006 C341.031854,18.3908213 340.816017,17.7416247 340.359209,17.2782103 C339.544466,16.4474912 338.711464,15.6373119 337.892156,14.8134394 C337.39737,14.3602946 337.047273,13.7712426 336.885708,13.1200506 C336.797272,12.576332 336.893699,12.0186618 337.159572,11.5362071 C337.722845,10.6828076 338.696935,10.1927213 339.717912,10.249049 C340.345516,10.249049 340.954862,10.5571453 341.580184,10.3768519 C341.580184,10.7556963 341.580184,11.1368229 341.536822,11.5179495 C341.294909,11.2737546 341.080383,10.9839159 340.733489,10.8675239 C340.172069,10.6666907 339.514797,10.5799673 338.969352,10.8675239 C338.517844,11.1387023 338.212661,11.5989918 338.138633,12.1204491 C338.069653,12.7475386 338.305604,13.3696685 338.773084,13.7932982 C339.651729,14.6491214 340.48473,15.5528707 341.335989,16.4383624 C341.891675,16.9671219 342.210178,17.6979496 342.219198,18.4649518 C342.26171,19.2376197 341.920101,19.9814728 341.30632,20.4527438 L341.30632,20.4504616 Z M324.835717,5 C322.539829,12.3692083 320.182321,19.7224413 317.890997,27.0916497 L318.730845,27.0916497 C321.04347,19.7323308 323.354573,12.3684476 325.664154,5 L324.835717,5 Z M338.757108,14.4984965 C338.413127,14.2014319 338.126202,13.8441292 337.910414,13.4441223 C337.58954,12.7597833 337.60898,11.9644222 337.962904,11.2965766 C337.299935,11.8396525 337.1254,12.7817532 337.549827,13.5262813 C337.837384,14.0808548 338.314362,14.4939321 338.734286,14.9412424 C339.15421,15.3885526 339.647164,15.8541204 340.103603,16.3379458 C340.560042,16.8217712 341.082665,17.2508239 341.299474,17.882992 C341.550515,18.5881903 341.374786,19.3527257 341.112334,20.0259733 C341.568773,19.5398657 341.904255,18.8848757 341.796992,18.2002171 C341.706274,17.7645807 341.503302,17.3602089 341.208186,17.0271688 C340.407135,16.1553702 339.565005,15.3520375 338.757108,14.5053431 L338.757108,14.4984965 Z" id="Shape"></path>
            </g>
        </g>
    </g>
</svg>
