<?xml version="1.0" encoding="UTF-8"?>
<svg width="101px" height="19px" viewBox="0 0 101 19" version="1.1" xmlns="http://www.w3.org/2000/svg" xmlns:xlink="http://www.w3.org/1999/xlink">
    <!-- Generator: Sketch 51.1 (57501) - http://www.bohemiancoding.com/sketch -->
    <title>Shape</title>
    <desc>Created with Sketch.</desc>
    <defs></defs>
    <g id="Symbols" stroke="none" stroke-width="1" fill="none" fill-rule="evenodd">
        <g id="Footer" transform="translate(-514.000000, -245.000000)" fill="#AAA59C" fill-rule="nonzero">
            <g id="Group-2" transform="translate(125.000000, 238.000000)">
                <path d="M393.60547,20.5881903 L399.981923,20.5881903 L399.162615,18.5638831 L392.786162,18.5638831 L393.60547,20.5881903 Z M414.047092,19.7802932 L413.344176,19.7232383 L414.01286,19.4790434 C415.028436,19.1070456 415.578445,18.5958339 415.578445,16.9686287 C415.578445,14.1090381 413.052055,13.8876652 412.278391,13.8876652 L402.129469,13.8876652 L402.129469,25.3671071 L412.45412,25.3671071 C415.117442,25.3374385 416.158123,24.4770509 416.158123,22.2907079 C416.158123,19.976562 414.133816,19.7939864 414.047092,19.7802932 Z M411.440826,23.0689365 L405.203586,23.0689365 L405.203586,16.1949645 L411.034595,16.1949645 C411.196631,16.1949645 412.609309,16.2291974 412.609309,17.4319143 C412.609309,18.0983153 412.189386,18.5205214 411.484187,18.5730119 L405.913349,18.5730119 L406.732657,20.5973191 L411.440826,20.5973191 C412.025068,20.5973191 413.010976,20.8460784 413.010976,21.7840606 C413.010976,22.7220428 412.166564,23.0689365 411.443108,23.0689365 L411.440826,23.0689365 Z M389,16.0466218 L389,23.2743341 C389,23.9042199 389.241913,25.3716715 391.487593,25.3716715 L400.897084,25.3716715 L400.897084,23.0666543 L392.083246,23.0666543 L392.083246,16.1949645 L400.897084,16.1949645 L400.897084,13.8922295 L391.311864,13.8922295 C390.241514,13.8922295 389,14.1364244 389,16.0466218 Z M440.910812,15.603876 C440.043578,13.8876652 439.117007,13.8876652 438.297699,13.8876652 L435.362796,13.8876652 L430.907951,22.1035679 C429.623075,19.6410793 428.0689,16.6126062 427.569099,15.6061582 C426.701865,13.8899474 425.775294,13.8899474 424.955986,13.8899474 L422.011954,13.8899474 L415.786125,25.3671071 L419.277884,25.3671071 L424.394566,16.0101067 L426.993986,20.9670347 L422.388516,20.9670347 L423.321934,23.1579421 L428.130519,23.1579421 L429.136967,25.3671071 L432.621879,25.3671071 L437.738561,16.0101067 L440.337981,20.9670347 L435.737076,20.9670347 L436.670494,23.1579421 L441.479079,23.1579421 L442.487809,25.3671071 L445.952182,25.3671071 C445.260676,24.0365873 441.718709,17.217388 440.910812,15.603876 Z M440.897119,7 C441.695887,8.52222421 449.268211,22.9548267 449.699546,23.9909434 C450.155985,25.0841149 450.719687,25.4720881 451.406628,25.4720881 L474.83108,25.4720881 C470.125193,24.8718707 466.779495,21.5238903 464.138995,19.2120266 L462.441042,17.6646982 C458.835174,14.3783371 454.056257,8.47429811 453.430935,7.92657126 C452.967789,7.51437047 452.423661,7.20344 451.833399,7.01369317 L440.897119,7 Z M462.005143,13.7279115 L461.954934,13.7279115 C463.242093,15.1360259 464.599999,16.5532692 465.834666,17.6715448 L467.53262,19.2188732 C469.992826,21.3755477 474.541241,24.9403366 478.870565,25.412751 C479.327004,25.4447017 482.882665,25.4652415 483.38703,25.4652415 L490.178843,25.4652415 C490.178843,25.4652415 489.113057,25.3556961 486.926714,24.337837 L486.90161,24.337837 C484.298147,23.1772443 481.79517,21.8032405 479.418292,20.2298857 L479.397752,20.2139103 C478.947457,19.9090976 478.514677,19.5791789 478.101466,19.2257198 L477.756854,18.9107768 C475.931098,17.3725772 473.936459,15.4418401 473.436659,15.031045 C472.77254,14.4970113 471.996593,13.7393225 469.87187,13.7393225 L462.005143,13.7279115 Z" id="Shape"></path>
            </g>
        </g>
    </g>
</svg>
