<?xml version="1.0" encoding="UTF-8"?>
<svg width="32px" height="32px" viewBox="0 0 32 32" version="1.1" xmlns="http://www.w3.org/2000/svg" xmlns:xlink="http://www.w3.org/1999/xlink">
    <!-- Generator: Sketch 51.1 (57501) - http://www.bohemiancoding.com/sketch -->
    <title>Shape</title>
    <desc>Created with Sketch.</desc>
    <defs></defs>
    <g id="Symbols" stroke="none" stroke-width="1" fill="none" fill-rule="evenodd">
        <g id="Footer" transform="translate(-336.000000, -238.000000)" fill="#AAA59C" fill-rule="nonzero">
            <g id="Group-2" transform="translate(125.000000, 238.000000)">
                <path d="M214.197409,20.7497256 L214.069606,20.7976517 C214.090431,20.81393 214.109547,20.8322818 214.126661,20.8524244 C214.147958,20.878156 214.167044,20.90564 214.183716,20.9345834 L214.227078,21.0076136 C214.25438,21.0593474 214.289827,21.1063525 214.332059,21.1468275 C214.380456,21.1890737 214.448831,21.1997296 214.507788,21.1742139 C214.556543,21.1607549 214.596216,21.125302 214.615051,21.0783617 C214.630545,21.0348157 214.630545,20.9872581 214.615051,20.9437122 C214.587907,20.8696821 214.538471,20.8058932 214.473555,20.7611365 C214.389241,20.711275 214.285549,20.7069902 214.197409,20.7497256 Z M233.824288,3.60587512 C233.794213,3.53277454 233.738108,3.47341728 233.666817,3.43927487 C233.598098,3.39831278 233.515505,3.38757565 233.438597,3.40960633 C233.363021,3.43740879 233.298269,3.48857042 233.253739,3.55566683 L233.824288,3.84322343 C233.860936,3.76926042 233.86588,3.68356194 233.837981,3.60587512 L233.824288,3.60587512 Z M237.770204,7.25738747 L238.176435,6.59098646 L237.475801,6.89680062 L237.770204,7.25738747 Z M238.021245,24.6773835 C237.93792,24.5991745 237.831347,24.5502954 237.717713,24.5381696 C237.623092,24.5393535 237.533789,24.5821252 237.473556,24.6551081 C237.413323,24.7280911 237.388267,24.8238863 237.405053,24.917014 C237.486503,25.1323454 237.675717,25.2885769 237.902571,25.3278092 C237.996913,25.3258476 238.085714,25.2828636 238.145778,25.210086 C238.205841,25.1373083 238.231201,25.0419659 238.215232,24.9489648 C238.184753,24.8431934 238.121656,24.7497458 238.034938,24.6819479 L238.021245,24.6773835 Z M215.240373,9.29538779 L215.121698,9.22920413 C215.124337,9.25576435 215.124337,9.28252074 215.121698,9.30908096 C215.116143,9.34244819 215.107744,9.37527925 215.096594,9.40721536 L215.069208,9.48709219 C215.047121,9.54167875 215.034019,9.59948174 215.030411,9.65825683 C215.030071,9.72227241 215.066442,9.7808206 215.123981,9.80888171 C215.165983,9.83802648 215.219276,9.8456398 215.267759,9.82942147 C215.309959,9.81112724 215.3446,9.77890247 215.365893,9.73813366 C215.404531,9.66868043 215.42049,9.58888563 215.411537,9.50991414 C215.393715,9.41438715 215.329558,9.33397616 215.240373,9.29538779 Z M215.72648,24.647715 C215.720296,24.7303816 215.746483,24.8122159 215.79951,24.8759345 C215.844949,24.9425205 215.916065,24.9871749 215.995779,24.9991731 C216.07572,25.0053764 216.155581,24.9862097 216.223999,24.9444004 L215.84059,24.4423174 C215.776521,24.4926877 215.7354,24.5667063 215.72648,24.647715 Z M218.138761,5.60736033 C218.131276,5.63261276 218.121339,5.6570726 218.109092,5.68039057 C218.092502,5.71010421 218.073415,5.73835308 218.052037,5.7648318 L217.999547,5.83101546 C217.960591,5.87511591 217.928996,5.92520549 217.905977,5.97935815 C217.883831,6.03938877 217.898023,6.1067985 217.942492,6.15280498 C217.97242,6.19361329 218.019696,6.2180954 218.070295,6.21898864 C218.116214,6.21629544 218.159774,6.19774214 218.193533,6.16649815 C218.252305,6.11481226 218.29374,6.04628555 218.312207,5.97022936 C218.329378,5.87259874 218.295866,5.77292194 218.223202,5.70549472 L218.138761,5.60736033 Z M226.811102,2.18406751 C226.750143,2.16378077 226.685714,2.15601818 226.62168,2.16124555 L226.165241,2.18178531 L226.185781,2.68386826 L226.64222,2.6633285 C226.70762,2.66379392 226.77231,2.64976461 226.831642,2.62224899 C226.916991,2.57497543 226.962848,2.4786751 226.945752,2.38261849 C226.94871,2.29087707 226.889773,2.20855242 226.801974,2.18178531 L226.811102,2.18406751 Z M216.479605,6.83289916 C216.554094,7.03667485 216.725286,7.18989156 216.936044,7.2414121 C217.023068,7.25098256 217.109004,7.21574859 217.164263,7.1478421 C217.230319,7.08238416 217.257928,6.98747759 217.237293,6.89680062 C217.21006,6.79490953 217.151843,6.70399611 217.070693,6.63663037 C216.978641,6.53426964 216.845306,6.47892323 216.707824,6.48600548 C216.640855,6.49440622 216.579217,6.52684712 216.534377,6.57729329 C216.470637,6.64600914 216.449618,6.74409907 216.479605,6.83289916 Z M219.818456,3.87973855 C219.731025,3.92227436 219.675297,4.01073082 219.674678,4.10795807 C219.685865,4.32321032 219.802961,4.51894031 219.987339,4.63058077 C220.070365,4.67113488 220.168742,4.66417008 220.245227,4.61232321 C220.330543,4.56746366 220.385376,4.48042609 220.389005,4.38410369 C220.392903,4.27909835 220.364204,4.17546044 220.306846,4.08741831 C220.24976,3.96458453 220.141067,3.87344975 220.010161,3.83865904 C219.943392,3.82865696 219.875264,3.84325589 219.818456,3.87973855 Z M226.790563,1.79152993 C226.842653,1.7520704 226.868936,1.6872413 226.859028,1.62264748 C226.863719,1.54836422 226.819224,1.47976862 226.749483,1.45376504 C226.675025,1.43460274 226.597947,1.42766577 226.521264,1.43322528 L226.112751,1.45148284 L226.131008,1.86684237 L226.587447,1.84630261 C226.658965,1.84758632 226.729386,1.82859653 226.790563,1.79152993 Z M223.164154,2.51042142 C223.084323,2.45989844 222.986419,2.4467278 222.896074,2.47435762 C222.805728,2.50198744 222.731938,2.56766647 222.694022,2.65419972 C222.642815,2.87867796 222.714983,3.1134418 222.883444,3.27039243 C222.963079,3.32172077 223.061286,3.33534712 223.151887,3.30763909 C223.242488,3.27993106 223.316274,3.21370475 223.353577,3.12661413 C223.403823,2.9021724 223.3318,2.66788146 223.164154,2.51042142 Z M241.234576,16.0689432 C241.059973,16.052569 240.885064,16.0969007 240.73934,16.1944639 C240.626634,16.2834127 240.559016,16.4176356 240.554613,16.5611453 C240.550211,16.7046551 240.609476,16.8427701 240.716518,16.9384596 C241.012414,17.1308697 241.390883,17.1423118 241.697862,16.9681281 C241.810567,16.8791793 241.878186,16.7449565 241.882588,16.6014467 C241.88699,16.457937 241.827725,16.319822 241.720684,16.2241325 C241.580389,16.1205309 241.408811,16.0681713 241.234576,16.0757898 L241.234576,16.0689432 Z M213.512751,14.546719 L213.378101,14.5330258 C213.389604,14.5564116 213.398777,14.5808729 213.405488,14.6060561 C213.413721,14.6390004 213.419066,14.6725998 213.421463,14.7064726 L213.421463,14.7909139 C213.422918,14.8493074 213.433705,14.9070923 213.453414,14.9620785 C213.478778,15.0208218 213.535544,15.0598484 213.599474,15.0624951 C213.649396,15.0721188 213.70094,15.0577541 213.738688,15.0236978 C213.770765,14.9902669 213.790141,14.946671 213.793461,14.9004592 C213.801723,14.8212472 213.784963,14.741437 213.745535,14.6722397 C213.692408,14.5956592 213.605927,14.5490272 213.512751,14.546719 Z M239.40882,21.8862588 C239.365691,21.8594065 239.312464,21.8543373 239.265042,21.8725656 C239.223801,21.8928668 239.190773,21.9267005 239.171472,21.9684178 C239.135971,22.0388777 239.123213,22.1186184 239.134957,22.1966373 C239.157346,22.2907281 239.224855,22.3676373 239.31525,22.4020349 L239.436206,22.461372 C239.433474,22.4348165 239.433474,22.4080507 239.436206,22.3814951 C239.440261,22.348261 239.447133,22.3154315 239.456746,22.2833608 L239.479568,22.2012017 C239.498576,22.146108 239.508594,22.0883142 239.509237,22.0300371 C239.505739,21.9669461 239.46685,21.9112639 239.40882,21.8862588 Z M226.977703,6.68534718e-06 C219.224081,-0.00704107552 212.586879,5.55901537 211.243073,13.1953028 C209.899266,20.8315902 214.237592,28.3290805 221.52782,30.9693957 L221.52782,26.9915295 C216.455099,24.4908925 213.74166,18.8530966 214.951887,13.328512 C216.162114,7.80392745 220.984001,3.81683597 226.637576,3.66592381 C232.291151,3.51501165 237.318877,7.23918516 238.822109,12.6913388 C240.32534,18.1434924 237.916533,23.9180176 232.98444,26.6857153 L232.98444,30.7457406 C240.052869,27.8688582 244.096046,20.3909915 242.632766,12.9011352 C241.169487,5.41127887 234.609158,0.00499967517 226.977703,6.68534718e-06 Z M241.355532,13.1386045 L241.442256,13.1226292 C241.546649,13.0909911 241.658795,13.0966388 241.759481,13.1386045 C241.850769,13.1751197 241.916192,13.2922723 241.95575,13.4900626 L241.95575,13.6269943 L241.652218,13.693178 C241.652855,13.6584506 241.648238,13.6238264 241.638525,13.5904792 C241.636754,13.5539375 241.618229,13.520255 241.588316,13.4991914 C241.564191,13.4852055 241.535846,13.4803464 241.50844,13.4854982 L241.392048,13.5083202 L241.437691,13.7365397 L241.18665,13.786748 L241.141006,13.5585285 L240.038706,13.7730548 L239.97024,13.4170323 L241.07254,13.202506 L241.033743,13.0016728 L241.284784,12.9514645 L241.355532,13.1386045 Z M241.583752,14.6311602 L241.355532,14.6676753 L241.325864,14.4394558 L240.595561,14.5330258 C240.539267,14.5330258 240.505034,14.5444368 240.492863,14.5672587 C240.479321,14.6111205 240.479321,14.6580465 240.492863,14.7019083 L240.492863,14.7726563 L240.223564,14.8068892 L240.196177,14.6357246 C240.160131,14.5147055 240.175829,14.3841609 240.239539,14.2751377 C240.286682,14.2234226 240.352243,14.1922811 240.422115,14.1884143 L241.273373,14.078869 L241.248269,13.8871646 L241.506157,13.8529316 L241.531261,14.044636 L241.916952,13.9944277 L241.962596,14.3527324 L241.576905,14.4029407 L241.583752,14.6311602 Z M241.127313,12.1207455 C241.168922,12.2559553 241.177531,12.3991667 241.152417,12.5383872 C241.122508,12.6647721 241.024924,12.7641139 240.899093,12.7962752 L240.285183,12.9720043 L240.129994,13.0199304 C240.097573,13.0285017 240.067778,13.0449669 240.04327,13.0678565 C240.029331,13.0865246 240.020661,13.1085937 240.018166,13.1317579 L239.965676,13.1454511 L239.85613,12.7643245 C239.878115,12.7474116 239.90183,12.7328765 239.926878,12.7209628 L240.004473,12.6890121 C239.937448,12.6550311 239.875903,12.6111808 239.821897,12.5589269 C239.756736,12.4960137 239.708803,12.417436 239.682683,12.3307074 C239.647093,12.2220099 239.653609,12.1039117 239.700941,11.9997891 C239.75285,11.8965214 239.848335,11.8219762 239.961111,11.7966737 C240.10447,11.7445391 240.265021,11.779133 240.374189,11.8856794 C240.450252,11.968822 240.509879,12.0656195 240.549918,12.1709538 L240.597844,12.2873457 C240.615699,12.3335857 240.63948,12.3773127 240.668592,12.4174308 C240.69403,12.458212 240.743081,12.4776473 240.789548,12.4653569 C240.837393,12.4569303 240.875824,12.4211812 240.887682,12.3740691 C240.89581,12.314124 240.889552,12.2531052 240.869425,12.1960579 C240.857921,12.1287604 240.816892,12.0701477 240.757597,12.0363042 C240.713959,12.0197489 240.666719,12.0150249 240.620666,12.0226111 L240.524813,11.6848462 C240.629728,11.6578743 240.740364,11.6634459 240.842039,11.7008215 C241.004469,11.7833418 241.120415,11.9354158 241.156981,12.1138989 L241.127313,12.1207455 Z M240.670874,10.8860779 L240.442654,10.9728013 C240.521814,10.9836657 240.598806,11.0067631 240.670874,11.0412671 C240.755798,11.0928342 240.818453,11.1742037 240.846603,11.2694867 L240.846603,11.3151306 L240.499709,11.4497801 L240.481452,11.390443 L240.467759,11.3493635 C240.442291,11.2355184 240.353384,11.1466111 240.239539,11.121144 C240.151411,11.1213489 240.064591,11.1424674 239.986215,11.1827632 L239.360894,11.4109828 L239.228527,11.0686535 L240.527096,10.5642883 L240.670874,10.8860779 Z M239.301557,7.28249161 L239.529776,7.59287016 L239.255913,7.78685676 L239.041387,7.48560699 L239.301557,7.28249161 Z M231.085654,1.59754334 L231.441676,1.69795992 L231.350389,2.02203164 L230.994366,1.92161506 L231.085654,1.59754334 Z M212.371653,13.2595609 L214.224796,13.5973258 L214.158612,13.9556304 L212.294059,13.6178655 L212.371653,13.2595609 Z M212.640952,16.4546342 C212.581413,16.3725551 212.5509,16.272987 212.554229,16.171642 C212.547384,16.0444371 212.586237,15.9189755 212.663774,15.8179017 C212.760111,15.7156508 212.898167,15.6634589 213.038054,15.6764056 L213.96919,15.6764056 L213.96919,16.0506856 L213.117931,16.0506856 C213.059962,16.0486528 213.002269,16.0595677 212.949049,16.0826364 C212.875284,16.123133 212.833682,16.2045273 212.844068,16.2880339 C212.836643,16.3976578 212.901371,16.499372 213.003821,16.5390754 C213.071582,16.5645135 213.143743,16.5761524 213.216065,16.5733083 L213.96919,16.5733083 L213.96919,16.9384596 L212.579333,16.9544349 L212.579333,16.6006947 L212.782448,16.6006947 C212.718352,16.5617946 212.661894,16.5115235 212.615848,16.452352 L212.640952,16.4546342 Z M214.028527,14.7635275 C214.066273,14.8495544 214.080452,14.9440753 214.069606,15.0373909 C214.062643,15.1517178 214.012951,15.2592481 213.930393,15.3386407 C213.844232,15.4161796 213.727617,15.4505767 213.613167,15.4322107 C213.462144,15.4291752 213.32592,15.3407184 213.261709,15.2039912 C213.222204,15.0990056 213.202848,14.9875128 213.204654,14.8753551 L213.204654,14.7498344 C213.200998,14.7008306 213.191026,14.6525045 213.174986,14.6060561 C213.166198,14.5584745 213.127235,14.5222941 213.079134,14.5170504 C213.032236,14.5077697 212.984201,14.5264497 212.955895,14.5649765 C212.925507,14.6179357 212.908288,14.6774206 212.905687,14.7384234 C212.891107,14.8059395 212.90789,14.8764261 212.951331,14.9301278 C212.985355,14.9616574 213.027066,14.9836936 213.072287,14.9940292 L213.038054,15.3432051 C212.930182,15.3297464 212.829027,15.2835495 212.748215,15.2108378 C212.625966,15.0699024 212.576204,14.880133 212.613566,14.6973439 C212.624714,14.5565117 212.669311,14.4203734 212.743651,14.3002419 C212.821104,14.181555 212.962966,14.1219188 213.101956,14.149617 L213.729559,14.2089541 L213.889313,14.2226473 C213.922464,14.2270743 213.956196,14.223152 213.987447,14.2112363 C214.007675,14.1991498 214.02424,14.1817959 214.035374,14.161028 L214.087864,14.161028 L214.049067,14.5558478 C214.022311,14.5640195 213.994776,14.5693737 213.966908,14.5718231 L213.882466,14.5718231 C213.931841,14.6278605 213.972606,14.6909307 214.003423,14.7589631 L214.028527,14.7635275 Z M212.802988,17.4633645 C213.080104,17.1910242 213.504811,17.1368857 213.841387,17.3309971 C214.16556,17.5920622 214.222281,18.0640642 213.96919,18.3945001 C213.692074,18.6668403 213.267367,18.7209788 212.930791,18.5268674 C212.603142,18.2677393 212.546061,17.792742 212.802988,17.4633645 Z M214.231642,18.7710623 L214.309237,19.1316492 L212.93992,19.4283345 L212.862325,19.0677477 L214.231642,18.7710623 Z M212.371653,19.1704465 L212.700289,19.0996984 L212.777884,19.4602853 L212.449248,19.5310333 L212.371653,19.1704465 Z M213.177268,20.2727468 L212.802988,20.3777278 L212.704854,20.0308341 L213.079134,19.9258531 L213.017514,19.6976336 L213.254863,19.6268855 L213.316482,19.855105 L214.026245,19.6565541 C214.081017,19.6413394 214.112968,19.6246033 214.122097,19.6063458 C214.130536,19.5608806 214.124965,19.5139245 214.106122,19.4716963 L214.106122,19.4374633 L214.094711,19.398666 L214.357163,19.3256358 L214.409654,19.4899538 C214.4598,19.6057128 214.4598,19.7370639 214.409654,19.8528229 C214.370231,19.9108322 214.309567,19.9510013 214.240771,19.9646504 L213.414616,20.1928699 L213.467107,20.3800099 L213.218348,20.450758 L213.177268,20.2727468 Z M219.307244,26.729077 L218.166147,28.2284793 L217.855768,28.0002598 L218.996866,26.5008575 L219.307244,26.729077 Z M218.077141,25.7180646 L217.508875,26.3456682 C217.468231,26.3862891 217.43706,26.4353841 217.417587,26.4894465 C217.391401,26.5742949 217.422704,26.6663634 217.495181,26.7176661 C217.570679,26.7970136 217.688904,26.8182572 217.787302,26.7701565 C217.851872,26.7377553 217.909295,26.6927473 217.956185,26.6377892 L218.462832,26.0786514 L218.743542,26.3068709 L217.810124,27.336141 L217.547672,27.1079214 L217.684604,26.9572966 C217.619492,26.9766359 217.551639,26.9851175 217.483771,26.9824007 C217.383038,26.9706468 217.289089,26.9256798 217.216754,26.8545978 C217.119115,26.773454 217.053578,26.6601802 217.031896,26.5350904 C217.02269,26.3952643 217.078222,26.2589584 217.182521,26.1653748 L217.812407,25.4807162 L218.077141,25.7180646 Z M217.177956,24.7686713 L217.298913,24.8919099 C217.398478,24.969799 217.461283,25.0854916 217.47236,25.2114172 C217.463245,25.2809013 217.427179,25.3440168 217.371943,25.3871462 L216.742057,25.969106 L216.874424,26.1128843 L216.68272,26.2886134 L216.550353,26.1448351 L216.265078,26.4072875 L216.023166,26.1425529 L216.30844,25.8801004 L216.155533,25.7135002 L216.347237,25.5377711 L216.500144,25.7043714 L217.041025,25.2045706 C217.083626,25.166534 217.104926,25.1368655 217.104926,25.115565 C217.104926,25.0950253 217.079822,25.0585101 217.029614,25.0037374 L217.00451,24.9786333 L216.979405,24.9535292 L217.177956,24.7686713 Z M216.721517,24.1365033 C216.832509,24.2764107 216.890684,24.4509367 216.885835,24.6294574 C216.865533,24.8376004 216.751214,25.02505 216.575457,25.138387 C216.425049,25.2748758 216.225889,25.3448287 216.023166,25.3323736 C215.839941,25.3058238 215.675279,25.2062032 215.566727,25.0562279 C215.496662,24.9682039 215.446098,24.8662983 215.418384,24.7572604 C215.393321,24.6521614 215.398864,24.5420845 215.434359,24.4400352 C215.466727,24.340763 215.521371,24.2502091 215.594113,24.1753006 C215.660117,24.1105268 215.731081,24.0510086 215.806357,23.9972894 L216.427114,24.7983399 C216.522959,24.7318716 216.577403,24.6203925 216.570892,24.5039367 C216.562347,24.4335082 216.53384,24.366992 216.488733,24.3122323 C216.424381,24.2144224 216.306443,24.1663397 216.192048,24.191276 L215.963829,23.8968728 C216.049893,23.8513702 216.148252,23.8345772 216.244539,23.8489467 C216.437869,23.8739744 216.611363,23.9802292 216.721517,24.1410677 L216.721517,24.1365033 Z M216.208023,23.5066174 L215.028128,24.2551774 L214.840988,23.9630564 L215.046386,23.8329713 C214.965927,23.8386582 214.885073,23.8317278 214.806756,23.8124315 C214.716289,23.7806071 214.640194,23.7174647 214.592229,23.6344203 L214.592229,23.6207271 L214.576254,23.5933408 L214.891197,23.3925076 L214.920865,23.4472803 L214.943687,23.4837954 C214.995131,23.5913822 215.105196,23.6584956 215.224397,23.6549601 C215.30689,23.6398513 215.384904,23.6063052 215.452617,23.5568257 L216.023166,23.1962388 L216.208023,23.5066174 Z M215.274606,21.8862588 L214.519199,22.2719498 C214.466518,22.295628 214.419749,22.3307045 214.382267,22.3746486 C214.336116,22.443722 214.336116,22.5337947 214.382267,22.6028681 C214.424764,22.7043356 214.528372,22.7663152 214.637873,22.7557752 C214.709914,22.7483805 214.779749,22.726654 214.843271,22.6918737 L215.514236,22.3495444 L215.680836,22.6736161 L214.441604,23.3057842 L214.281851,22.9908413 L214.462144,22.8995535 C214.393749,22.8947774 214.326636,22.8785778 214.263593,22.8516274 C214.173978,22.8046126 214.102529,22.7291492 214.060478,22.637101 C213.997825,22.526341 213.976783,22.396849 214.001141,22.2719498 C214.042081,22.1380816 214.142188,22.0304037 214.272722,21.9798288 L215.110287,21.5507761 L215.274606,21.8862588 Z M214.704057,20.5169417 C214.683729,20.5358474 214.661557,20.5526676 214.637873,20.56715 L214.562561,20.6059473 C214.631819,20.6341636 214.696442,20.6726299 214.754265,20.720057 C214.826179,20.7807164 214.88055,20.8595151 214.911737,20.9482766 C214.953724,21.0553751 214.953724,21.1743785 214.911737,21.2814771 C214.869526,21.3908935 214.77956,21.4749739 214.667542,21.5096966 C214.52889,21.5722327 214.366698,21.5500754 214.2499,21.4526417 C214.168065,21.3760686 214.101469,21.2846928 214.053631,21.1833427 L213.994294,21.0715151 C213.972483,21.02628 213.944863,20.9840837 213.912135,20.9459944 C213.882938,20.9074562 213.831928,20.892617 213.786614,20.9094792 C213.740391,20.9221056 213.705676,20.9603804 213.697609,21.0076136 C213.693822,21.0686548 213.704781,21.1297108 213.729559,21.1856249 C213.746601,21.2521638 213.792705,21.3074885 213.85508,21.3362497 C213.899934,21.3482585 213.947158,21.3482585 213.992012,21.3362497 L214.11525,21.6648859 C214.01195,21.697017 213.901326,21.697017 213.798025,21.6648859 C213.626054,21.5924602 213.497753,21.4439019 213.451132,21.2632195 C213.398811,21.1321979 213.37847,20.9905934 213.391794,20.8501422 C213.411507,20.71087 213.51337,20.5972879 213.649683,20.5625856 L214.247618,20.334366 L214.398243,20.275029 C214.430497,20.2640571 214.459515,20.2452344 214.482684,20.2202563 C214.495389,20.200458 214.502487,20.1775852 214.503224,20.1540726 L214.553432,20.1358151 L214.704057,20.5169417 Z M214.704057,11.9176301 C214.649447,12.11983 214.526968,12.2971021 214.357163,12.419713 C214.207032,12.5187081 214.018335,12.5391078 213.850516,12.4744857 L213.96919,12.1161811 C214.036366,12.1349776 214.107412,12.1349776 214.174587,12.1161811 C214.289343,12.062125 214.373311,11.958844 214.402807,11.8354711 C214.430277,11.7623709 214.445693,11.6852942 214.448451,11.6072515 C214.4541,11.5055858 214.391717,11.4124766 214.295544,11.379032 C214.239085,11.3583746 214.17583,11.3706742 214.131226,11.4109828 C214.065604,11.4781076 214.010926,11.5551183 213.96919,11.6392023 L213.861927,11.8172135 C213.792744,11.9467795 213.701629,12.0633753 213.592628,12.161825 C213.460589,12.2594464 213.28629,12.2786193 213.136189,12.2120333 C212.982267,12.1643878 212.857602,12.0505994 212.796142,11.9016547 C212.729993,11.7153767 212.73569,11.5111256 212.812117,11.3288237 C212.865883,11.1532515 212.975708,11.000138 213.124778,10.8929244 C213.273254,10.7908382 213.461707,10.7662205 213.631425,10.8267408 L213.512751,11.1827632 C213.414929,11.1496037 213.30676,11.175316 213.234323,11.2489469 C213.179174,11.3080186 213.138543,11.3791238 213.115649,11.4566267 C213.084518,11.5381154 213.07739,11.6268183 213.095109,11.7122325 C213.110104,11.780507 213.160672,11.835434 213.227476,11.8560108 C213.287202,11.8777718 213.354135,11.8626003 213.398641,11.8172135 C213.457578,11.7525608 213.508884,11.6813449 213.551548,11.6049693 L213.74097,11.3196949 C213.797692,11.2164604 213.875439,11.1262732 213.96919,11.0549603 C214.094249,10.9757936 214.249932,10.9621821 214.386832,11.0184452 C214.544978,11.0689309 214.671181,11.1892443 214.729161,11.3447991 C214.793026,11.53548 214.786549,11.7427199 214.710903,11.9290411 L214.704057,11.9176301 Z M215.208422,10.5802637 C215.175381,10.7029802 215.092673,10.806365 214.980202,10.8655381 C214.912854,10.8845413 214.840737,10.8763462 214.779369,10.8427161 L213.996576,10.4981047 L213.916699,10.6761159 L213.68848,10.5688527 L213.768357,10.3908415 L213.414616,10.2310878 L213.562959,9.90245172 L213.916699,10.0622054 L214.010269,9.85680781 L214.238489,9.96407099 L214.144919,10.1694686 L214.815884,10.4707183 C214.848039,10.4902125 214.885842,10.4982558 214.923147,10.4935403 C214.941405,10.4935403 214.965748,10.4562644 214.996178,10.3817127 L215.009871,10.349762 L215.023564,10.3155291 L215.272323,10.4273566 L215.208422,10.5802637 Z M215.742456,9.51904292 C215.715285,9.51564939 215.688525,9.50953278 215.662579,9.50078536 L215.582702,9.46883463 C215.606579,9.54256732 215.618897,9.61955234 215.619217,9.69705415 C215.619676,9.79075188 215.595263,9.88289336 215.548469,9.96407099 C215.498307,10.0687094 215.410174,10.150314 215.301992,10.1922905 C215.191877,10.2290568 215.071033,10.2139513 214.973356,10.151211 C214.835163,10.0862811 214.746438,9.94786898 214.745136,9.79518854 C214.750423,9.68325066 214.776746,9.57331013 214.822731,9.47111682 L214.882068,9.35700706 C214.902719,9.31117299 214.917297,9.26283818 214.92543,9.21322876 C214.935766,9.16644857 214.914504,9.11837868 214.872939,9.09455461 C214.832561,9.06884848 214.78095,9.06884848 214.740572,9.09455461 C214.691965,9.13118251 214.652838,9.17891843 214.626462,9.23376852 C214.586296,9.28992379 214.57371,9.36124361 214.592229,9.42775511 C214.611056,9.47060233 214.640998,9.50763578 214.678953,9.53501829 L214.507788,9.84311464 C214.415922,9.78983697 214.342026,9.71037945 214.295544,9.61489512 C214.239423,9.43669971 214.269818,9.2425152 214.377703,9.08999022 C214.443088,8.96370661 214.53778,8.85492818 214.653848,8.77276509 C214.770749,8.69531958 214.922639,8.69531958 215.039539,8.77276509 L215.589548,9.08314364 L215.731045,9.15845608 C215.760224,9.17540547 215.793167,9.18481772 215.826897,9.18584242 C215.850287,9.18268002 215.872377,9.17321313 215.890798,9.15845608 L215.938724,9.18356023 L215.742456,9.51904292 Z M216.554917,8.2889397 L215.870258,7.79598554 C215.824836,7.75955387 215.771795,7.73381357 215.715069,7.72067309 C215.632074,7.70986031 215.550819,7.75048798 215.509672,7.82337188 C215.439399,7.90764856 215.432005,8.02780018 215.491414,8.12005726 C215.53162,8.18075953 215.583619,8.23275889 215.644321,8.27296434 L216.251385,8.70886362 L216.039141,9.005549 L214.898043,8.19765189 L215.103441,7.9100953 L215.267759,8.02876945 C215.24093,7.96568608 215.224735,7.89859441 215.219833,7.83021846 C215.219641,7.72858658 215.253374,7.6297976 215.315685,7.54950845 C215.383808,7.44013342 215.489181,7.3590777 215.61237,7.32128893 C215.750592,7.2957489 215.892872,7.33531788 215.998061,7.42855211 L216.762597,7.97399676 L216.554917,8.2889397 Z M217.56593,7.07481185 L217.422151,6.94472672 C217.447831,7.0266936 217.452539,7.11379296 217.435844,7.19805039 C217.41491,7.28388023 217.371599,7.36262742 217.310324,7.42626991 C217.203574,7.5454654 217.047734,7.60864352 216.888118,7.59743455 C216.702903,7.58359649 216.529167,7.5024117 216.399728,7.36921503 C216.24318,7.24288663 216.135136,7.06630736 216.093914,6.86941428 C216.067174,6.70310729 216.120464,6.53393219 216.237692,6.41297524 C216.34067,6.29161195 216.501862,6.23642131 216.657616,6.26919694 L216.164662,5.8127579 L216.413421,5.53889447 L217.807842,6.80323062 L217.56593,7.07481185 Z M218.624868,6.07292815 C218.600658,6.06079253 218.577722,6.04626636 218.556402,6.02956644 L218.492501,5.97251156 C218.491444,6.05013293 218.478356,6.12712091 218.453703,6.20073108 C218.423058,6.28918571 218.36951,6.36793418 218.298514,6.4289506 C218.215264,6.50806067 218.105251,6.55288078 217.990418,6.55447134 C217.874949,6.55189049 217.766797,6.49739495 217.696015,6.40612865 C217.587964,6.29888998 217.55073,6.13931831 217.600162,5.99533351 C217.642762,5.8910806 217.704711,5.79583386 217.782738,5.7146235 L217.867179,5.6210535 C217.902007,5.58479822 217.931931,5.54413284 217.956185,5.50009715 C217.984718,5.46142928 217.984718,5.4086799 217.956185,5.37001202 C217.927879,5.33148518 217.879844,5.31280522 217.832946,5.32208592 C217.774446,5.34034539 217.721212,5.37244263 217.677757,5.41565593 C217.621663,5.45536742 217.586453,5.5182434 217.581905,5.58682057 C217.585256,5.6334749 217.601014,5.67838606 217.627549,5.7169057 L217.362814,5.94512522 C217.293509,5.86156616 217.251316,5.75886953 217.241858,5.65072204 C217.251918,5.46780245 217.345277,5.29958899 217.495181,5.19428299 C217.599945,5.09907065 217.725908,5.03022103 217.862615,4.99344981 C217.999924,4.9623877 218.142389,5.01739027 218.223202,5.13266372 L218.645408,5.61192472 L218.752671,5.73059887 C218.773965,5.75669469 218.801414,5.77708557 218.832548,5.78993594 C218.854975,5.79594031 218.878587,5.79594031 218.901014,5.78993594 L218.937529,5.83101546 L218.624868,6.07292815 Z M219.081307,5.69864813 L218.257435,4.57352589 L218.538145,4.36812832 L218.681923,4.56439711 C218.66944,4.48500796 218.66944,4.40415577 218.681923,4.32476662 C218.707405,4.23137833 218.765757,4.15033435 218.846241,4.09654709 L218.859934,4.09654709 L218.887321,4.08057173 L219.11554,4.3818215 L219.06305,4.41377223 L219.026534,4.43887638 C218.92288,4.49689302 218.862995,4.61040529 218.873627,4.72871517 C218.892813,4.81239126 218.931086,4.89049845 218.985455,4.95693469 L219.377993,5.49553276 L219.081307,5.69864813 Z M220.660586,4.65340273 L220.562452,4.48680248 C220.562882,4.57282594 220.541694,4.65757904 220.500833,4.73327956 C220.455448,4.80685731 220.391755,4.86740517 220.315975,4.90900859 C220.178121,4.99215897 220.009446,5.00649639 219.859536,4.94780591 C219.687451,4.88324775 219.544699,4.75833985 219.457869,4.59634785 C219.345501,4.43011596 219.293913,4.23021173 219.311809,4.03036343 C219.334021,3.86111769 219.435802,3.71268802 219.585672,3.63097927 C219.654568,3.58915581 219.73331,3.56632075 219.813892,3.56479561 C219.889257,3.56279935 219.963884,3.58008139 220.0307,3.6150039 L219.690653,3.04217291 L220.007878,2.8527507 L220.968683,4.47082711 L220.660586,4.65340273 Z M221.920358,4.03036343 L221.500434,3.00565778 L221.311012,3.08325242 L221.212877,2.8550329 L221.397735,2.77972046 L221.363502,2.69756143 C221.311894,2.60200508 221.294959,2.49152815 221.315576,2.38490068 C221.332312,2.28752702 221.43425,2.20004287 221.62139,2.12244823 L221.680728,2.09962628 L221.753758,2.07680433 L221.867868,2.35066776 L221.769733,2.38490068 C221.733894,2.39402941 221.704359,2.41934489 221.689856,2.45336654 C221.680434,2.47915856 221.680434,2.50745135 221.689856,2.53324337 L221.7355,2.64278874 L221.96372,2.55150093 L222.061854,2.77972046 L221.833635,2.87100826 L222.262687,3.90940709 L221.920358,4.03036343 Z M223.695906,3.22703072 C223.496642,3.59298842 223.041605,3.7328438 222.6712,3.54197366 C222.355838,3.31565296 222.229871,2.90695838 222.363104,2.54237215 C222.559836,2.17333023 223.017767,2.03258513 223.38781,2.22742921 C223.706302,2.45462801 223.832638,2.86732396 223.695906,3.2338773 L223.695906,3.22703072 Z M224.643017,2.11788384 L224.599655,2.11788384 C224.480835,2.12745703 224.378835,2.20619387 224.339485,2.31871702 C224.320377,2.40130668 224.320377,2.48716884 224.339485,2.5697585 L224.467288,3.22931291 L224.108983,3.30234316 L223.828273,1.93302603 L224.16832,1.86227798 L224.216246,2.0904975 C224.239635,2.01316245 224.275063,1.9399957 224.321227,1.87368896 C224.383437,1.8000757 224.470168,1.75144146 224.565422,1.73675724 L224.613348,1.73675724 L224.695507,2.10190848 L224.643017,2.11788384 Z M227.260695,2.67702167 C227.190672,2.80681784 227.068649,2.90061786 226.925212,2.93490973 C226.838446,2.95609002 226.749738,2.9683256 226.660477,2.97142485 L225.811501,3.00793998 L225.731624,1.14110429 L226.644502,1.10230697 C226.829741,1.07839902 227.015103,1.14557146 227.142021,1.2826004 C227.204126,1.36402416 227.238518,1.46320007 227.240155,1.5655926 C227.249264,1.6651442 227.22256,1.76467996 227.164843,1.84630261 C227.126473,1.89320304 227.079148,1.93199382 227.025629,1.96041237 C227.117337,1.98554889 227.197799,2.04106748 227.253848,2.11788384 C227.307822,2.19826588 227.337168,2.29265002 227.338289,2.38946507 C227.342382,2.49879326 227.313777,2.60685806 227.25613,2.69984362 L227.260695,2.67702167 Z M228.858231,3.06271266 L228.504491,3.03304412 L228.520467,2.83677534 L228.490798,2.87329046 C228.475949,2.89324831 228.458265,2.91093158 228.438308,2.92578095 C228.387018,2.96725951 228.32809,2.99827431 228.264861,3.01706876 C228.202818,3.03154935 228.13877,3.03540767 228.075439,3.02847973 C227.903622,3.03317501 227.746662,2.93155937 227.680619,2.77287387 C227.644559,2.65471162 227.634439,2.53015628 227.65095,2.40772264 L227.721698,1.57015699 L228.093696,1.60210773 L228.022948,2.43967337 C228.015444,2.500083 228.0201,2.56138337 228.036641,2.61996679 C228.067043,2.69486086 228.140698,2.74305472 228.221499,2.74092314 C228.329256,2.75976166 228.436933,2.70730353 228.488516,2.61083801 C228.520888,2.54450329 228.539519,2.47230981 228.543289,2.39859386 L228.60719,1.64318724 L228.974623,1.67513797 L228.858231,3.06271266 Z M230.47859,2.3780541 L230.120285,2.30730605 C230.124491,2.26757947 230.118196,2.22744478 230.102028,2.19091409 C230.059933,2.12708432 229.991043,2.08591832 229.914888,2.07908653 C229.858384,2.06166915 229.797945,2.06166915 229.741441,2.07908653 C229.708283,2.09170098 229.683506,2.1198946 229.675257,2.15439897 C229.665415,2.19171041 229.678907,2.23128541 229.70949,2.25481556 C229.822348,2.32241852 229.940676,2.38043746 230.063231,2.42826239 C230.176958,2.47316498 230.276902,2.54713985 230.353069,2.64278874 C230.409251,2.72659303 230.426708,2.8305006 230.400995,2.92806314 C230.376622,3.05882279 230.292055,3.17045154 230.172776,3.22931291 C229.846596,3.34506312 229.483096,3.26937064 229.230229,3.03304412 C229.147794,2.92618081 229.116878,2.78831365 229.145788,2.65648191 L229.508657,2.72951216 C229.50099,2.77938756 229.508963,2.83041326 229.531479,2.87557265 C229.588683,2.94433836 229.670678,2.98779567 229.759699,2.996529 C229.816764,3.00969757 229.87608,3.00969757 229.933145,2.996529 C229.97182,2.98784226 230.002552,2.95853448 230.013063,2.92031476 C230.023573,2.88209505 230.012149,2.84119435 229.983354,2.81395338 C229.872229,2.74213321 229.754551,2.68100159 229.631896,2.63137777 C229.517197,2.58572267 229.414801,2.51381092 229.332928,2.42141581 C229.279255,2.34428645 229.262539,2.24733088 229.287284,2.15668116 C229.311489,2.03096611 229.39001,1.92237265 229.501811,1.85999578 C229.641354,1.78384717 229.805063,1.76502063 229.95825,1.80750529 C230.105474,1.83020266 230.243203,1.89431773 230.355352,1.99236311 C230.455087,2.10134998 230.495906,2.25186862 230.464897,2.39631166 L230.47859,2.3780541 Z M230.553903,3.42329951 L230.935029,2.07680433 L231.291052,2.17722092 L230.909925,3.51686951 L230.553903,3.42329951 Z M232.393352,4.05318539 L232.044176,3.92081806 L232.345426,3.12889632 C232.368494,3.07567618 232.379409,3.01798294 232.377376,2.96001388 C232.3581,2.88163471 232.294705,2.82181097 232.215341,2.8071068 C232.115976,2.76012618 231.997604,2.78324572 231.92322,2.86416168 C231.874808,2.91790764 231.837571,2.98074607 231.813674,3.04901949 L231.542093,3.74737123 L231.202046,3.6172861 L231.697282,2.31643483 L232.025918,2.44195556 L231.952888,2.63137777 C232.006407,2.58907252 232.066556,2.55591331 232.130899,2.53324337 C232.228852,2.50802042 232.332408,2.51604801 232.425303,2.55606532 C232.545958,2.59529431 232.648705,2.67619785 232.715141,2.78428485 C232.776476,2.91034849 232.776476,3.05760536 232.715141,3.18366901 L232.393352,4.05318539 Z M233.719307,4.54842175 C233.53303,4.60961801 233.329454,4.58801408 233.160169,4.48908467 C232.999397,4.40844523 232.872436,4.27339754 232.801865,4.10795807 C232.731982,3.91045901 232.756367,3.69183487 232.868048,3.51458731 C232.948711,3.32729134 233.101878,3.18071196 233.292537,3.10835657 C233.470035,3.05286029 233.662604,3.07352226 233.824288,3.16541145 C233.925569,3.21515012 234.015051,3.28595776 234.086741,3.37309121 C234.153571,3.45789687 234.194748,3.56004916 234.205415,3.66749439 C234.217357,3.77070943 234.20565,3.87528869 234.171182,3.97330855 C234.138873,4.05984715 234.099961,4.14377476 234.05479,4.22435003 L233.141912,3.76791098 C233.084132,3.86983739 233.084132,3.99462069 233.141912,4.09654709 C233.179216,4.15687798 233.233088,4.20520424 233.297101,4.235761 C233.396686,4.29691871 233.523621,4.29057194 233.616608,4.21978564 L233.947527,4.39095028 C233.890643,4.46837694 233.810778,4.52587975 233.719307,4.55526833 L233.719307,4.54842175 Z M234.805632,5.33121471 C234.4588,5.31592875 234.149611,5.10804161 234.004582,4.79261663 C233.968398,4.66237962 233.9918,4.52280324 234.068483,4.41149003 L234.376579,4.61460541 C234.350449,4.65778687 234.338479,4.70805996 234.342347,4.75838371 C234.370033,4.84437245 234.430796,4.91581079 234.511229,4.95693469 C234.559246,4.99193334 234.6147,5.01536465 234.673265,5.02540055 C234.712282,5.03150568 234.751498,5.01567725 234.775346,4.98419854 C234.799193,4.95271983 234.803814,4.91068323 234.787375,4.87477566 C234.711633,4.76323335 234.625268,4.65928862 234.529487,4.56439711 C234.44012,4.47863837 234.372115,4.37311337 234.330936,4.25630076 C234.310475,4.16468297 234.33134,4.06870275 234.38799,3.99384831 C234.457254,3.887115 234.569901,3.81618922 234.696087,3.79986172 C234.85045,3.78293922 235.005471,3.825366 235.129704,3.91853587 C235.256066,3.99740503 235.357383,4.11059533 235.421825,4.24488978 C235.472072,4.37855217 235.456872,4.52802751 235.380745,4.64883834 L235.077213,4.44800516 C235.09677,4.41325319 235.106254,4.37373805 235.1046,4.3338954 C235.090363,4.25852124 235.042447,4.19379237 234.974515,4.15816637 C234.927911,4.12182948 234.871451,4.10035869 234.812479,4.09654709 C234.776297,4.09538238 234.741968,4.11254662 234.721191,4.142191 C234.700324,4.17407397 234.700324,4.21528901 234.721191,4.24717198 C234.800189,4.3525542 234.887988,4.451042 234.983643,4.54157516 C235.071911,4.62612703 235.136441,4.73236518 235.170783,4.84967151 C235.192469,4.94605399 235.172589,5.047113 235.116011,5.12809933 C235.047661,5.24540381 234.927071,5.32268326 234.791939,5.3357791 L234.805632,5.33121471 Z M236.250262,6.05238839 C236.170092,6.15485228 236.047161,6.21463386 235.917061,6.21442425 C235.574524,6.1623117 235.289465,5.92388249 235.17763,5.59594935 C235.155802,5.46252174 235.19425,5.32628285 235.282611,5.22395153 L235.567885,5.45217105 C235.537018,5.49219144 235.51946,5.54087481 235.517677,5.59138496 C235.536086,5.68060795 235.589526,5.75871309 235.66602,5.8081935 C235.709861,5.84766363 235.762171,5.87655146 235.818927,5.89263473 C235.857525,5.90348476 235.898952,5.89190225 235.926326,5.86260713 C235.9537,5.83331201 235.962451,5.7911957 235.949012,5.75342082 C235.883474,5.63763644 235.807056,5.52835825 235.720792,5.4270669 C235.641258,5.332625 235.584979,5.22084818 235.556474,5.10071299 C235.549395,5.01289272 235.579158,4.92608417 235.638633,4.86108249 C235.719298,4.76202086 235.83954,4.70356983 235.96727,4.70132883 C236.122276,4.7012008 236.271549,4.75993115 236.384911,4.86564688 C236.504011,4.95548398 236.595049,5.07739571 236.647364,5.21710494 C236.683508,5.35503901 236.653115,5.50193923 236.565205,5.61420691 L236.284495,5.38598739 C236.307847,5.35300604 236.322023,5.31441529 236.325574,5.27415982 C236.318742,5.19800496 236.277576,5.12911492 236.213747,5.08701982 C236.17128,5.04531957 236.117172,5.01746976 236.058557,5.00714298 C236.023638,5.0024968 235.988664,5.01529236 235.964987,5.04137591 C235.938994,5.06995317 235.932696,5.11134122 235.949012,5.14635689 C236.015951,5.25909648 236.092296,5.36597903 236.177232,5.46586422 C236.255876,5.55939682 236.308601,5.67192886 236.330139,5.79221814 C236.340233,5.89016973 236.308772,5.98786346 236.243415,6.06151717 L236.250262,6.05238839 Z M237.391359,7.89640213 L237.603604,7.54950845 L237.147164,7.02460355 L236.770602,7.18207502 L236.501303,6.86941428 L238.365857,6.1459584 L238.657978,6.48372329 L237.667505,8.21590946 L237.391359,7.89640213 Z M237.749664,8.37566312 L238.890762,7.57004821 L239.105288,7.87129798 L237.96419,8.67691289 L237.749664,8.37566312 Z M238.146766,8.94392973 L239.333507,8.21134507 L239.516083,8.50803044 L239.308403,8.63583337 C239.385303,8.63276987 239.462228,8.64123163 239.536623,8.66093752 C239.626711,8.69362429 239.702042,8.75761499 239.748867,8.84123094 L239.748867,8.85720631 L239.76256,8.88459265 L239.445335,9.08086144 L239.417949,9.02608876 L239.395127,8.98957363 C239.345252,8.88213267 239.237433,8.81352046 239.118981,8.8138446 C239.03687,8.8275825 238.958884,8.85955679 238.890762,8.90741461 L238.324777,9.25659047 L238.146766,8.94392973 Z M238.872504,10.3132469 C238.774687,10.1528551 238.758603,9.95561583 238.829142,9.78149537 C238.913216,9.6159704 239.05188,9.48456281 239.22168,9.40949755 C239.3963,9.3089007 239.601938,9.27638873 239.799075,9.31820974 C239.975721,9.36802402 240.120659,9.49453104 240.193895,9.66282122 C240.267532,9.79552949 240.297853,9.94793316 240.280619,10.0987205 C240.244426,10.2554958 240.140861,10.3882931 239.997626,10.4615895 L239.831026,10.128389 C239.873363,10.1004177 239.90854,10.0628954 239.933725,10.0188437 C239.967047,9.9536271 239.967047,9.87638048 239.933725,9.81116391 C239.886097,9.70505501 239.77182,9.64555573 239.657579,9.66738561 C239.571313,9.68042105 239.487936,9.70821344 239.411102,9.74954464 C239.33455,9.78373608 239.264929,9.83169712 239.205705,9.89104074 C239.124327,9.96780555 239.10552,10.0900508 239.160061,10.1877261 C239.185715,10.2511749 239.23849,10.2997612 239.303839,10.3200934 C239.367651,10.3313102 239.433336,10.3241877 239.493261,10.2995537 L239.659861,10.6327542 C239.553261,10.6747308 239.436986,10.6858046 239.324379,10.6647049 C239.123573,10.6381428 238.950852,10.5094663 238.86794,10.3246578 L238.872504,10.3132469 Z M236.257108,27.3429875 C236.221918,27.4942006 236.13054,27.6263723 236.001502,27.7127032 C235.887018,27.8082346 235.747696,27.8691881 235.599836,27.8884322 C235.456558,27.8925944 235.319647,27.8292095 235.23012,27.7172676 L235.519959,27.489048 C235.546556,27.5185214 235.580381,27.540547 235.618094,27.5529495 C235.693786,27.5636602 235.770235,27.5392975 235.825773,27.4867658 C235.875391,27.4547547 235.914328,27.4086661 235.937601,27.3543985 C235.950134,27.3207446 235.944994,27.2830514 235.923908,27.2539819 C235.9019,27.2225865 235.8633,27.2073263 235.825773,27.2151846 C235.700829,27.2551889 235.57945,27.3055728 235.462904,27.3658095 C235.353686,27.4216433 235.231654,27.4476245 235.109164,27.4411219 C235.011195,27.4295892 234.922583,27.3774156 234.864969,27.2973436 C234.782892,27.1956248 234.752553,27.0616276 234.78281,26.9344746 C234.910731,26.6127256 235.207372,26.3891448 235.55191,26.354797 C235.687067,26.3629291 235.811638,26.4306486 235.891957,26.5396548 L235.597554,26.7678743 C235.565744,26.7291215 235.52268,26.7012093 235.474315,26.6879975 C235.383373,26.6860005 235.295422,26.7205234 235.23012,26.7838497 C235.181892,26.8177469 235.142075,26.8622482 235.113729,26.9139348 C235.095003,26.9488295 235.097027,26.9912033 235.118994,27.024154 C235.140961,27.0571047 235.179297,27.0752708 235.21871,27.0714063 C235.346253,27.0353868 235.470057,26.9872412 235.588425,26.927628 C235.698687,26.8712841 235.820625,26.8415812 235.944448,26.8409046 C236.037314,26.8514247 236.120816,26.9023607 236.172667,26.9801185 C236.257962,27.0847236 236.289988,27.2229404 236.259391,27.3543985 L236.257108,27.3429875 Z M237.398206,26.4438026 L237.25671,26.2977421 C237.267945,26.3649811 237.267945,26.4336185 237.25671,26.5008575 C237.238064,26.6006739 237.186667,26.6914229 237.110649,26.7587456 C237.022479,26.8507903 236.904294,26.9082637 236.777449,26.9207814 C236.637377,26.9202867 236.505288,26.8555043 236.419144,26.7450524 L235.768719,26.0603938 L236.038018,25.8025058 L236.624542,26.4141341 C236.661971,26.4581342 236.708753,26.4932209 236.761473,26.5168329 C236.843404,26.5459942 236.934819,26.5203979 236.989693,26.4529314 C237.074131,26.3832557 237.103682,26.2668974 237.062723,26.1653748 C237.034681,26.098564 236.993555,26.038039 236.941767,25.9873636 L236.419144,25.4442011 L236.681597,25.1908775 L237.644683,26.1950434 L237.398206,26.4438026 Z M238.402372,25.407686 C238.284838,25.5746494 238.095274,25.6762015 237.89116,25.6815494 C237.502702,25.6662156 237.172201,25.3935988 237.083263,25.0151484 C237.048728,24.5993625 237.352954,24.2322639 237.767922,24.1889938 C238.156379,24.2043276 238.486881,24.4769444 238.575819,24.8553948 C238.611392,25.0610438 238.545035,25.2711743 238.397807,25.419097 L238.402372,25.407686 Z M237.866056,23.7348369 L238.076018,23.4313049 L239.217116,24.2232267 L239.007154,24.5267586 L237.866056,23.7348369 Z M239.427077,24.8120331 L239.150932,24.6203287 L239.360894,24.3167967 L239.637039,24.5085011 L239.427077,24.8120331 Z M239.826462,23.9790318 L239.493261,23.7781986 L239.376869,23.9721852 L239.14865,23.8375357 L239.265042,23.6435491 L238.635156,23.2783979 C238.606074,23.2548961 238.569847,23.2420154 238.532457,23.2418827 C238.511917,23.2418827 238.484531,23.2806801 238.445734,23.3445815 L238.427476,23.3742501 L238.409218,23.4062008 L238.180999,23.2647047 L238.26544,23.1140798 C238.349121,22.9619335 238.435844,22.8767315 238.52561,22.8584739 C238.594785,22.8481266 238.665258,22.8653352 238.721879,22.9064 L239.454464,23.3628391 L239.55488,23.1962388 L239.7831,23.3308884 L239.682683,23.4974886 L240.015884,23.6983218 L239.826462,23.9790318 Z M240.214435,22.5937393 C240.154228,22.7218972 240.064241,22.8337951 239.951982,22.9200932 C239.835082,22.9975387 239.683192,22.9975387 239.566291,22.9200932 L238.988896,22.6644874 L238.845118,22.5937393 C238.815524,22.5783801 238.782605,22.5705422 238.749266,22.5709174 C238.726481,22.5752384 238.705232,22.5854694 238.687646,22.6005859 L238.63972,22.5777639 L238.815449,22.2217415 C238.84324,22.2234132 238.870778,22.2280028 238.897608,22.2354347 L238.977485,22.262821 C238.949649,22.1897293 238.933476,22.1127161 238.929559,22.0346015 C238.924501,21.9413748 238.944185,21.8484684 238.986614,21.7653024 C239.032355,21.6639744 239.113505,21.582824 239.214833,21.5370829 C239.32257,21.495537 239.443293,21.5047589 239.543469,21.5621871 C239.682313,21.6230364 239.7744,21.7576248 239.780818,21.9090807 C239.780387,22.0216712 239.758707,22.1331686 239.716916,22.2377168 L239.675837,22.356391 C239.657534,22.4025477 239.645261,22.4508725 239.639322,22.5001693 C239.630882,22.5472631 239.653982,22.5943862 239.696377,22.6165613 C239.736584,22.6428456 239.788536,22.6428456 239.828744,22.6165613 C239.875558,22.5779753 239.912356,22.5286497 239.936007,22.472783 C239.973066,22.415166 239.982282,22.343949 239.961111,22.2787964 C239.940251,22.2371255 239.908761,22.2016993 239.869823,22.1760976 L240.025013,21.8611546 C240.122803,21.9118689 240.202518,21.9915836 240.253232,22.0893742 C240.315555,22.2549562 240.301348,22.4396369 240.214435,22.5937393 Z M240.711953,21.3773293 L240.483734,21.2906058 C240.536004,21.3521255 240.578354,21.421425 240.609255,21.4960034 C240.637559,21.5877171 240.631888,21.6865568 240.593279,21.7744312 L240.593279,21.7904066 L240.579586,21.8177929 L240.225846,21.6808612 L240.253232,21.6260885 L240.269208,21.585009 C240.325172,21.4803293 240.314449,21.3525438 240.241821,21.2586551 C240.176923,21.1986093 240.09871,21.15481 240.013602,21.1308522 L239.392845,20.9026326 L239.529776,20.5397636 L240.830628,21.0418466 L240.711953,21.3773293 Z M241.168392,20.1426616 C241.139014,20.2512713 241.086894,20.3523993 241.015485,20.439347 C240.945831,20.5220007 240.853965,20.5829805 240.750751,20.6150761 C240.651486,20.6475874 240.546098,20.6569552 240.442654,20.6424624 C240.351353,20.6282474 240.26131,20.6068812 240.173355,20.5785609 L240.442654,19.5926526 C240.332397,19.5547747 240.210361,19.5772778 240.120865,19.6519897 C240.069662,19.7001413 240.033245,19.7618911 240.015884,19.8300009 C239.975174,19.9395573 240.006002,20.0628696 240.093478,20.1403794 L239.986215,20.4986841 C239.898268,20.456183 239.826275,20.3865895 239.780818,20.3001331 C239.684169,20.1298353 239.665063,19.9263054 239.728327,19.7409953 C239.774576,19.5679517 239.88046,19.4168047 240.027295,19.3142248 C240.207309,19.2063663 240.426845,19.1870202 240.622948,19.2617343 C240.822117,19.3040902 240.995752,19.4250588 241.104491,19.597217 C241.196463,19.7652339 241.212242,19.9645483 241.147853,20.1449438 L241.168392,20.1426616 Z M241.54039,18.2324642 L241.337275,18.1982313 C241.385415,18.2407508 241.426273,18.2908603 241.458231,18.346574 C241.507502,18.4387984 241.523615,18.5451433 241.503875,18.6478238 C241.480127,18.8043159 241.390376,18.9430973 241.257398,19.0289504 C241.091655,19.126631 240.894442,19.1560902 240.707389,19.1111094 C240.506563,19.0923534 240.319306,19.0015623 240.180202,18.8555035 C240.072093,18.7299186 240.027517,18.5617065 240.059246,18.3990645 C240.072446,18.3007583 240.11731,18.2094276 240.187049,18.1388942 C240.231496,18.0986828 240.282422,18.0662754 240.337673,18.043042 L239.621064,17.9243679 L239.680401,17.5683454 L241.597445,17.8832884 L241.54039,18.2324642 Z M241.204908,17.4884686 C240.91846,17.4969263 240.641717,17.3842407 240.442654,17.1780901 C240.160031,16.8100996 240.175292,16.2940673 240.479169,15.9434224 C240.691715,15.7484179 240.977156,15.6529943 241.264245,15.68097 C241.553513,15.6678723 241.834192,15.7811435 242.033344,15.9913485 C242.315968,16.359339 242.300706,16.8753713 241.996829,17.2260162 C241.784119,17.425568 241.494862,17.5222646 241.204908,17.4907508 L241.204908,17.4884686 Z M213.08598,18.2119245 C213.298413,18.3003186 213.541831,18.2690221 213.724995,18.1297655 C213.783408,18.0669646 213.814334,17.9834433 213.810906,17.8977444 C213.807478,17.8120455 213.76998,17.731261 213.706737,17.6733264 L213.663376,17.6390935 C213.450816,17.5516508 213.207888,17.5828845 213.024361,17.7212525 C212.905135,17.8537798 212.915332,18.0577182 213.047183,18.1776916 L213.08598,18.2119245 Z M240.670874,19.6885048 L240.499709,20.2932865 C240.577323,20.3123673 240.65933,20.3000663 240.727929,20.2590536 C240.793679,20.2151928 240.840839,20.1485184 240.860296,20.0719136 C240.885787,19.9965584 240.879185,19.9140383 240.842039,19.8436941 C240.802534,19.775404 240.742696,19.7211504 240.670874,19.6885048 Z M240.394728,12.3854801 L240.358213,12.3101677 C240.335229,12.2559964 240.303631,12.2059014 240.264643,12.161825 C240.21963,12.1157543 240.152092,12.0997585 240.091196,12.1207455 C240.040897,12.1296883 239.997761,12.1618289 239.974804,12.2074689 C239.95931,12.2510148 239.95931,12.2985724 239.974804,12.3421184 C239.996608,12.4176746 240.041249,12.4846366 240.102607,12.5338228 C240.182253,12.5888026 240.283958,12.6007679 240.374189,12.5657735 L240.504274,12.5292584 C240.484916,12.5112068 240.467339,12.4913364 240.451783,12.4699213 C240.426482,12.4438784 240.403568,12.4156181 240.383317,12.3854801 L240.394728,12.3854801 Z M240.750751,18.7413938 C240.849529,18.7596646 240.95144,18.7501845 241.045154,18.7140074 C241.138971,18.6759424 241.202184,18.5869089 241.20719,18.4857879 C241.233451,18.3649418 241.175466,18.2414899 241.065694,18.1845381 C240.989873,18.143184 240.907102,18.1161092 240.821499,18.1046613 C240.697265,18.0700751 240.563981,18.0972415 240.463194,18.1776916 C240.416265,18.223668 240.385787,18.2838224 240.376471,18.3488562 C240.356524,18.4403538 240.385968,18.5356136 240.454065,18.5998977 C240.532885,18.6745043 240.632248,18.7237881 240.73934,18.7413938 L240.750751,18.7413938 Z M225.295725,9.58522658 L220.359336,6.43351499 L220.309128,6.82148818 L224.291559,9.81344611 L222.308331,11.1827632 C222.308331,11.1827632 221.881561,11.7213613 222.675765,11.7898272 C223.634639,11.8429582 224.596447,11.7924575 225.544484,11.6392023 C226.539521,11.4908596 226.934341,11.4109828 226.934341,11.4109828 L234.207697,14.3093707 L234.725755,14.2089541 L228.454283,11.3356703 L228.792048,11.1074508 C228.805417,10.9822272 228.867767,10.8673724 228.965495,10.7879435 C229.052343,10.7370912 229.147301,10.7015783 229.246205,10.6829625 C229.246205,10.6829625 229.456167,10.911182 229.912606,10.7537105 C230.369045,10.5962391 230.369045,10.4524608 230.341658,10.2059837 C230.314348,10.1091474 230.236532,10.0348283 230.138543,10.0119971 C229.969661,9.97091757 229.960532,9.82713928 230.044973,9.80203513 C230.129414,9.77693098 230.254935,9.68336098 230.229831,9.57381561 C230.204727,9.46427024 230.120285,9.40493316 230.229831,9.26115486 C230.339376,9.11737656 230.668012,8.55367435 230.668012,8.55367435 L232.664933,9.23833291 L232.893153,9.12878754 L230.820919,8.13375043 L231.208893,7.73893066 L230.880256,7.62938529 L230.442075,7.91465969 L228.723582,7.03829673 L228.495362,7.15697088 L230.129414,8.28665751 L229.186868,9.31364535 L228.251168,9.34787828 C228.251168,9.34787828 227.863194,8.78417606 227.493479,8.69060606 C227.123763,8.59703606 226.701557,8.74994314 226.635373,8.94392973 C226.56919,9.13791632 226.550932,9.26343706 226.635373,9.36613584 C226.676072,9.40662233 226.712758,9.45095126 226.744919,9.49850317 C226.555437,9.53420759 226.364239,9.56010693 226.172088,9.5760978 C225.94615,9.58522658 225.295725,9.58522658 225.295725,9.58522658 Z M225.523944,11.0846288 L223.974334,10.2082659 L224.782231,9.7198761 L225.952997,10.3748661 L225.523944,11.0846288 Z M229.517786,10.1580576 C229.671557,10.1580576 229.796214,10.282714 229.796214,10.4364854 C229.796214,10.5902568 229.671557,10.7149132 229.517786,10.7149132 C229.364014,10.7149132 229.239358,10.5902568 229.239358,10.4364854 C229.239358,10.282714 229.364014,10.1580576 229.517786,10.1580576 Z M226.724379,9.15389169 C226.724379,8.97491182 226.869471,8.82981997 227.048451,8.82981997 C227.227431,8.82981997 227.372522,8.97491182 227.372522,9.15389169 C227.372522,9.33287156 227.227431,9.47796341 227.048451,9.47796341 C226.869471,9.47796341 226.724379,9.33287156 226.724379,9.15389169 Z M217.650371,15.1606295 L219.184006,15.1606295 L219.184006,21.0623863 L217.650371,21.0623863 L217.650371,15.1606295 Z M219.720322,18.942227 L219.720322,19.327918 C219.706521,19.6746622 219.752059,20.0212158 219.854971,20.3526236 C219.964704,20.6145119 220.168135,20.8260802 220.42552,20.9459944 C220.751906,21.1080224 221.113427,21.1864433 221.477612,21.1742139 C221.816581,21.1812443 222.152779,21.1118205 222.461238,20.9710985 C222.702529,20.8727528 222.903561,20.6958439 223.031787,20.4690156 C223.147479,20.1736746 223.198079,19.8568463 223.18013,19.5401621 C223.18013,18.962006 223.091124,18.5428428 222.913113,18.2826725 C222.735102,18.0225023 222.304528,17.6900625 221.62139,17.2853532 C221.449324,17.2027605 221.30036,17.0788856 221.187773,16.9247664 C221.126544,16.7847624 221.099179,16.632297 221.107897,16.4797383 C221.100032,16.3613265 221.124485,16.2430026 221.178645,16.137409 C221.221534,16.0628424 221.302707,16.0187264 221.388607,16.0232993 C221.460191,16.0167432 221.529821,16.0489471 221.571182,16.1077405 C221.619386,16.2318362 221.638136,16.3654251 221.625955,16.4979959 L221.625955,16.9544349 L223.052327,16.9544349 L223.052327,16.7262154 C223.072701,16.388006 223.026169,16.049099 222.915395,15.7288961 C222.79371,15.5056192 222.596204,15.3332066 222.358539,15.2427885 C222.03712,15.1057843 221.68996,15.0396216 221.34068,15.0488019 C221.020537,15.0397309 220.70219,15.0996641 220.407263,15.224531 C220.172226,15.32252 219.975811,15.4948846 219.848125,15.7152029 C219.713286,16.0255374 219.653849,16.3633907 219.674678,16.7011113 C219.666526,16.9644682 219.708343,17.2269853 219.797916,17.4747754 C219.864197,17.6538699 219.96943,17.8160065 220.106013,17.949472 C220.346154,18.1493375 220.599271,18.3330761 220.863702,18.4994811 C221.120474,18.6540453 221.361284,18.8336966 221.582593,19.035797 C221.702488,19.2427364 221.75213,19.4829427 221.724089,19.7204555 C221.732821,19.8460354 221.706763,19.9715918 221.648777,20.0833246 C221.600871,20.1626877 221.513128,20.2091914 221.420557,20.2042809 C221.337604,20.2135475 221.256209,20.1767885 221.208313,20.1084287 C221.155928,19.9726408 221.135621,19.8265865 221.148976,19.6816582 L221.148976,18.9582023 L219.720322,18.942227 Z M223.485944,18.1297655 L225.421245,18.1297655 L225.421245,19.1476245 L223.485944,19.1476245 L223.485944,18.1297655 Z M229.321517,16.8334786 C229.350874,16.4496822 229.271796,16.0653595 229.093298,15.7243317 C228.953427,15.5051069 228.739702,15.3431934 228.490798,15.2678927 C228.130999,15.1802872 227.760848,15.1426577 227.39078,15.1560651 L225.859427,15.1560651 L225.859427,21.0578219 L227.634975,21.0578219 C228.046374,21.0794888 228.458793,21.0441605 228.860514,20.9528409 C229.054438,20.8876499 229.212407,20.7445677 229.296413,20.5580212 C229.403151,20.2755947 229.449789,19.9740047 229.433345,19.6725294 L229.433345,19.1248026 C229.454409,18.8272043 229.388604,18.5298925 229.243922,18.2689794 C229.061699,18.0506343 228.80451,17.9082034 228.522749,17.8695952 C228.763629,17.8361319 228.987518,17.7265861 229.161763,17.5569345 C229.289456,17.3401321 229.345369,17.0885219 229.321517,16.838043 L229.321517,16.8334786 Z M227.890581,19.4990826 C227.912654,19.6568976 227.881324,19.8175618 227.801575,19.9555216 C227.679156,20.0347881 227.533784,20.0709303 227.388498,20.0582204 L227.388498,18.4059111 C227.535264,18.392339 227.682654,18.4242073 227.810704,18.4971989 C227.883058,18.6377051 227.910919,18.7969104 227.890581,18.9536379 L227.890581,19.4990826 Z M227.828961,17.3652301 C227.787882,17.4382603 227.69203,17.4770576 227.541405,17.4770576 L227.388498,17.4770576 L227.388498,16.1647954 C227.495957,16.1608932 227.603447,16.1716422 227.708005,16.1967461 C227.769752,16.2236398 227.81765,16.2748413 227.840372,16.3382422 C227.881758,16.4631676 227.898802,16.5948704 227.890581,16.7262154 C227.908217,16.9419436 227.887352,17.1590892 227.828961,17.3675123 L227.828961,17.3652301 Z M229.627331,21.0578219 L231.224868,21.0578219 L231.316156,19.9966011 L231.863883,19.9966011 L231.946042,21.0578219 L233.51391,21.0578219 L232.639829,15.1560651 L230.421535,15.1560651 L229.627331,21.0578219 Z M231.58089,16.4728917 C231.658485,17.4572786 231.734558,18.2834333 231.80911,18.9513557 L231.313874,18.9513557 C231.347346,18.4310152 231.442437,17.6056213 231.599148,16.4751739 L231.58089,16.4728917 Z M234.052508,15.669559 C233.906193,15.870649 233.815649,16.1068509 233.790055,16.3542176 C233.762669,16.6006947 233.748976,17.0206186 233.748976,17.6139893 L233.748976,18.6227196 C233.741573,19.0484306 233.756045,19.4742409 233.792338,19.8984668 C233.856624,20.4107271 234.193964,20.8476955 234.673265,21.0395644 C234.944113,21.146556 235.233345,21.1992846 235.524524,21.1947536 C235.824103,21.2009063 236.121711,21.1449591 236.398604,21.0304356 C236.870255,20.8336315 237.198541,20.3970805 237.25671,19.889338 C237.284096,19.6428609 237.297789,19.222937 237.297789,18.6295662 L237.297789,17.6208359 C237.305049,17.1951261 237.290576,16.7693232 237.254428,16.3450888 C237.190141,15.8328285 236.852802,15.3958601 236.3735,15.2039912 C236.102652,15.0969996 235.813421,15.044271 235.522241,15.0488019 C235.222657,15.0425831 234.925035,15.0985328 234.648161,15.21312 C234.412091,15.3087837 234.206278,15.4664947 234.052508,15.669559 Z M235.282611,16.6760071 C235.265085,16.4909685 235.286862,16.304315 235.346512,16.1282803 C235.38738,16.0667422 235.457581,16.0312086 235.53137,16.0347103 C235.612183,16.0269067 235.68844,16.0734051 235.71851,16.14882 C235.759245,16.3214001 235.774621,16.498994 235.764154,16.6760071 L235.764154,19.387255 C235.774641,19.6080384 235.760094,19.8292993 235.720792,20.0468094 C235.696731,20.1359642 235.611888,20.194776 235.519959,20.1860234 C235.434933,20.1961853 235.354268,20.1458886 235.325973,20.065067 C235.287361,19.855937 235.273572,19.6429798 235.284893,19.4306167 L235.282611,16.6760071 Z M222.059572,26.7016907 L222.516011,26.7016907 L222.516011,27.7332429 L222.059572,27.7332429 L222.059572,26.7016907 Z M222.684893,26.7016907 L223.141332,26.7016907 L223.141332,27.7332429 L222.684893,27.7332429 L222.684893,26.7016907 Z M222.059572,27.9842844 L222.516011,27.9842844 L222.516011,31.0949165 L222.059572,31.0949165 L222.059572,27.9842844 Z M222.684893,27.9842844 L223.141332,27.9842844 L223.141332,31.0949165 L222.684893,31.0949165 L222.684893,27.9842844 Z M230.597264,29.0500696 C230.730687,29.0471216 230.860016,29.0962339 230.957851,29.1870013 L231.510142,29.1870013 C231.372542,28.804402 231.003611,28.5544517 230.597264,28.5685264 C230.353554,28.554871 230.114527,28.6393856 229.933564,28.8031951 C229.752602,28.9670046 229.64478,29.1964633 229.634178,29.4403249 C229.634178,29.4585825 229.634178,29.4760793 229.634178,29.4928154 C229.629289,29.7476498 229.725857,29.9939841 229.902629,30.1776039 C230.079401,30.3612238 230.321888,30.4670807 230.576724,30.4718772 L230.599546,30.4718772 C231.050542,30.5199663 231.464342,30.2177633 231.555786,29.7735254 L231.042292,29.7735254 C230.934771,29.9209455 230.767836,30.0135945 230.585853,30.0268491 C230.305648,30.01938 230.084232,29.7867409 230.090617,29.5065086 C230.08693,29.3854384 230.131518,29.2678675 230.21456,29.1796885 C230.297603,29.0915094 230.412289,29.0399541 230.533363,29.0363764 L230.597264,29.0500696 Z M224.054211,26.7016907 L224.054211,29.3604481 C224.051134,29.4205065 224.051134,29.4806831 224.054211,29.5407415 C224.106701,30.0907506 224.478699,30.540343 225.03099,30.540343 C225.424243,30.5426594 225.782313,30.3141813 225.945896,29.956559 C226.109478,29.5989367 226.048173,29.178629 225.789255,28.8826316 C225.530337,28.5866342 225.121923,28.4699538 224.745716,28.5845017 L224.745716,29.1755903 C224.9092,29.0465816 225.139276,29.0445886 225.30497,29.170746 C225.470665,29.2969033 225.529957,29.5192177 225.449094,29.7111328 C225.368231,29.9030479 225.167719,30.0158944 224.961704,29.9854326 C224.755688,29.9549707 224.596414,29.7889255 224.574551,29.581821 L224.574551,26.7016907 L224.054211,26.7016907 Z M227.833526,28.5434222 C227.476403,28.5434222 227.146407,28.7339452 226.967845,29.043223 C226.789284,29.3525008 226.789284,29.7335467 226.967845,30.0428245 C227.146407,30.3521023 227.476403,30.5426253 227.833526,30.5426252 C227.937571,30.5374875 228.040442,30.5182951 228.13934,30.4855704 L228.13934,29.9332791 C228.044117,29.9801057 227.939632,30.0050573 227.833526,30.0063094 C227.57703,30.0063094 227.369099,29.7983784 227.369099,29.5418826 C227.369099,29.2853868 227.57703,29.0774559 227.833526,29.0774559 C228.203241,29.0774559 228.335609,29.2645959 228.356149,29.499662 L228.356149,31.0971987 L228.812588,31.0971987 L228.812588,29.7278815 C228.866124,29.4366168 228.787449,29.1366239 228.597862,28.9091198 C228.408275,28.6816156 228.127388,28.5501332 227.831244,28.5502688 L227.833526,28.5434222 Z M230.629215,30.7594338 C229.9931,30.7603153 229.460832,30.2769068 229.40065,29.6436445 C229.340467,29.0103823 229.772147,28.4353645 230.397041,28.3164055 C231.021934,28.1974465 231.634693,28.5736378 231.811392,29.1847191 L232.267831,29.1847191 C232.082869,28.4283993 231.407801,27.8943619 230.629215,27.8884322 C230.072688,27.8668597 229.548327,28.1491406 229.259898,28.6255813 C228.953862,28.1723415 228.437246,27.9071455 227.890581,27.9226651 C227.098659,27.9226651 226.683299,28.2239149 226.477902,28.6643786 C226.249682,28.2079395 225.793243,27.9226651 225.03099,27.9226651 C224.940149,27.9224514 224.849404,27.9285519 224.759409,27.9409227 L224.759409,28.3197671 C224.84899,28.3032035 224.93989,28.294801 225.03099,28.2946629 C225.740753,28.2946629 226.302173,28.7944637 226.302173,29.4357606 C226.304844,30.1445457 225.739596,30.7250159 225.03099,30.7411762 C224.346074,30.7188477 223.808777,30.1457988 223.830555,29.4608647 L223.830555,26.7016907 L223.374116,26.7016907 L223.374116,29.3923988 L223.374116,29.4403249 C223.336784,30.3476525 224.041543,31.1136947 224.948831,31.1519714 L225.019579,31.1519714 C225.756728,31.1519714 226.199474,30.8370284 226.427694,30.3805894 C226.635373,30.8621326 227.091812,31.1542536 227.881452,31.1542536 C227.967212,31.1514267 228.052646,31.142273 228.137058,31.1268672 L228.137058,30.7069433 C228.053087,30.7258215 227.967486,30.7365217 227.881452,30.738894 C227.16256,30.738894 226.626245,30.282455 226.626245,29.5567169 C226.60884,29.2370175 226.719383,28.9235352 226.933473,28.6854675 C227.147562,28.4473998 227.447595,28.3043218 227.767342,28.2878164 L227.890581,28.2878164 C228.469847,28.3076798 228.951118,28.7408234 229.031678,29.3148042 C229.064291,29.5154037 229.075004,29.7189535 229.063629,29.9218681 L229.063629,31.0812233 L229.595381,31.0812233 L229.595381,30.8096421 C229.885425,31.0490321 230.253418,31.1733214 230.629215,31.1588179 C231.437646,31.1669134 232.132192,30.5865125 232.267831,29.7895008 L231.811392,29.7895008 C231.678273,30.3406094 231.19571,30.7365343 230.629215,30.7594338 Z M225.793243,25.2821653 L224.120394,24.262024 C224.120394,24.262024 224.088443,23.198521 224.088443,23.0524605 C224.095397,22.9980432 224.070268,22.9445109 224.023962,22.9150936 C223.977657,22.8856764 223.91852,22.8856764 223.872214,22.9150936 C223.825909,22.9445109 223.80078,22.9980432 223.807733,23.0524605 C223.807733,23.198521 223.775783,24.262024 223.775783,24.262024 L222.102934,25.2776009 L222.102934,25.4852806 L223.730139,25.0836143 L223.76209,25.9440019 L223.81458,26.0421363 L223.81458,26.1357063 L223.417478,26.3821834 L223.417478,26.4917287 L224.467288,26.4917287 L224.467288,26.3821834 L224.081597,26.1265775 L224.081597,26.0330075 L224.134087,25.9348731 L224.166038,25.0744855 L225.793243,25.4761519 L225.793243,25.2821653 Z" id="Shape"></path>
            </g>
        </g>
    </g>
</svg>
