<?xml version="1.0" encoding="UTF-8"?>
<svg width="88px" height="16px" viewBox="0 0 88 16" version="1.1" xmlns="http://www.w3.org/2000/svg" xmlns:xlink="http://www.w3.org/1999/xlink">
    <!-- Generator: Sketch 51.1 (57501) - http://www.bohemiancoding.com/sketch -->
    <title>Shape</title>
    <desc>Created with Sketch.</desc>
    <defs></defs>
    <g id="Symbols" stroke="none" stroke-width="1" fill="none" fill-rule="evenodd">
        <g id="Footer" transform="translate(-208.000000, -246.000000)" fill="#AAA59C" fill-rule="nonzero">
            <g id="Group-2" transform="translate(125.000000, 238.000000)">
                <path d="M85.1858505,11.1401208 C88.2302989,8.38551117 94.0864118,6.95001038 99.278406,8.89900509 C94.8988733,8.55667581 87.1690782,10.4965417 85.1858505,11.1401208 Z M84.302641,12.066692 C86.8906503,11.3318252 97.934193,8.35584263 101.697533,10.1336727 C102.404879,10.6086459 103.048383,11.1723831 103.612295,11.8110862 C98.1350262,9.48552926 84.3802356,13.2831021 83.3623765,13.7623631 C83.63624,13.1644279 83.9785692,12.3268623 84.302641,12.0689742 L84.302641,12.066692 Z M83.1067707,14.68437 C86.8176201,13.3858009 99.9539357,10.1336727 104.436167,13.0206496 C104.683231,13.6042307 104.889132,14.2043941 105.05236,14.8167373 C101.040261,10.8867971 85.1767217,15.163631 83.0109185,16.2157229 C82.981826,15.7006016 83.0109176,15.1838424 83.0976419,14.6752412 L83.1067707,14.68437 Z M83.0268938,16.4553534 C85.5213332,17.046442 102.316008,17.8657501 105.136801,15.9509883 C105.083127,16.5312303 104.968382,17.1041899 104.794472,17.6603525 C102.076377,19.5431636 85.0055571,18.5161757 83.4993082,18.0711477 C83.3021087,17.5525511 83.1494112,17.0181097 83.0428692,16.473611 L83.0268938,16.4553534 Z M83.9557473,18.8995845 C86.1626301,19.2259384 102.548792,20.0406821 104.413345,18.5070469 C103.954061,19.3110119 103.357807,20.0285254 102.65149,20.6272063 C100.015555,21.3460978 86.0256984,20.9695356 85.2908315,20.4560417 C85.0352256,20.2278221 84.2638436,19.4473114 83.9580295,18.8995845 L83.9557473,18.8995845 Z M86.4342113,21.3552266 C89.4444268,21.8322054 98.8858684,22.0056522 101.400848,21.5263912 C98.004941,23.9044386 90.6151929,24.2650255 86.4342113,21.3552266 Z M110.83316,10.8822327 L112.814106,10.8822327 L121.580018,18.3381645 L121.580018,10.8822327 L123.376105,10.8822327 L123.376105,20.4674526 L121.659894,20.4674526 L112.629248,12.767326 L112.629248,20.4765814 L110.83316,20.4765814 L110.83316,10.8822327 Z M126.651055,10.8822327 L134.780235,10.8822327 C137.037326,10.8822327 138.541292,11.516683 138.541292,13.3378748 C138.541292,14.5520026 137.947922,14.9993129 137.432146,15.3302312 C138.346743,15.757022 138.9257,16.6808519 138.911008,17.6900211 C138.911008,19.4998019 137.473225,20.4742992 135.136257,20.4742992 L126.651055,20.4742992 L126.651055,10.8822327 Z M134.898909,14.6706768 C136.12673,14.6706768 136.66761,14.3671448 136.66761,13.5615299 C136.66761,12.755915 136.12673,12.4386899 134.898909,12.4386899 L128.524738,12.4386899 L128.524738,14.6683946 L134.898909,14.6706768 Z M134.951399,18.9201243 C136.138141,18.9201243 137.037326,18.6919048 137.037326,17.5508071 C137.037326,16.5466413 136.218018,16.2316983 134.951399,16.2316983 L128.524738,16.2316983 L128.524738,18.9246887 L134.951399,18.9201243 Z M154.286157,13.1712745 C154.286157,11.3637759 152.736547,10.7316078 150.486302,10.7316078 L145.508834,10.7316078 C143.25859,10.7316078 141.736366,11.3637759 141.727237,13.1712745 L141.727237,20.4195265 L143.475398,20.4195265 L143.475398,16.7292169 L152.547124,16.7292169 L152.547124,20.4218087 L154.295286,20.4218087 L154.295286,13.1712745 L154.286157,13.1712745 Z M143.468552,15.1704775 L143.468552,13.3447214 C143.505067,12.5756216 144.19429,12.2857828 145.387878,12.2857828 L150.662031,12.2857828 C151.889852,12.2857828 152.531149,12.5893148 152.531149,13.4063406 L152.531149,15.1659131 L143.468552,15.1704775 Z M170.044715,13.1712745 C170.044715,11.3637759 168.495105,10.7316078 166.24486,10.7316078 L161.267392,10.7316078 C159.017148,10.7316078 157.494924,11.3637759 157.485795,13.1712745 L157.485795,20.4195265 L159.236239,20.4195265 L159.236239,16.7292169 L168.307965,16.7292169 L168.307965,20.4218087 L170.056126,20.4218087 L170.056126,13.1712745 L170.044715,13.1712745 Z M159.236239,15.1704775 L159.236239,13.3447214 C159.272754,12.5756216 159.961977,12.2857828 161.155565,12.2857828 L166.438847,12.2857828 C167.666668,12.2857828 168.305682,12.5893148 168.305682,13.4063406 L168.305682,15.1659131 L159.236239,15.1704775 Z" id="Shape"></path>
            </g>
        </g>
    </g>
</svg>
