<?xml version="1.0" encoding="UTF-8"?>
<svg width="41px" height="28px" viewBox="0 0 41 28" version="1.1" xmlns="http://www.w3.org/2000/svg" xmlns:xlink="http://www.w3.org/1999/xlink">
    <!-- Generator: Sketch 51.1 (57501) - http://www.bohemiancoding.com/sketch -->
    <title>wyvern</title>
    <desc>Created with Sketch.</desc>
    <defs></defs>
    <g id="Symbols" stroke="none" stroke-width="1" fill="none" fill-rule="evenodd">
        <g id="Footer" transform="translate(-125.000000, -240.000000)" fill-rule="nonzero">
            <g id="Group-2" transform="translate(125.000000, 238.000000)">
                <g id="wyvern" transform="translate(0.000000, 2.000000)">
                    <g id="Group">
                        <path d="M35.3682584,21.782623 L35.7851685,21.782623 L39.583427,25.5695082 L39.583427,21.782623 L40.8019101,21.782623 L40.8019101,27.8554098 L40.341236,27.8554098 L36.5798315,24.0983607 L36.5798315,27.8462295 L35.3567416,27.8462295 L35.3682584,21.782623 Z M22.9507865,21.782623 L22.9507865,27.8554098 L27.4101124,27.8554098 L27.4101124,26.7331148 L24.1577528,26.7331148 L24.1577528,25.3560656 L26.6016292,25.3560656 L26.6016292,24.2085246 L24.1577528,24.2085246 L24.1577528,22.9118033 L27.4101124,22.9118033 L27.4101124,21.7642623 L22.9507865,21.782623 Z M15.6514045,21.782623 L18.0906742,27.8554098 L19.3160674,27.8554098 L21.7461236,21.782623 L20.4447191,21.782623 L18.6895506,26.2281967 L16.9597191,21.782623 L15.6514045,21.782623 Z M11.2865169,25.3560656 L11.2865169,27.8485246 L12.4980899,27.8485246 L12.4980899,25.3560656 L14.741573,21.7780328 L13.3319101,21.7780328 L11.8946067,24.2796721 L10.4826404,21.7780328 L9.04303371,21.7780328 L11.2865169,25.3560656 Z M1.63308989,27.8485246 L2.85848315,27.8485246 L4.07005618,23.4098361 L5.27702247,27.8531148 L6.5047191,27.8531148 L8.13089888,21.7757377 L6.82258427,21.7757377 L5.77224719,25.8770492 L4.72651685,21.7757377 L3.45505618,21.7757377 L2.3655618,25.8931148 L1.31061798,21.7757377 L0,21.7757377 L1.63308989,27.8485246 Z M34.0415169,27.8485246 L32.6249438,27.8485246 L31.1715169,25.3560656 L30.072809,25.3560656 L30.072809,27.8531148 L28.8566292,27.8531148 L28.8566292,21.782623 L31.5354494,21.782623 C32.9013483,21.782623 33.6315169,22.3678689 33.6315169,23.5383607 C33.6315169,24.5665574 33.0925281,25.0760656 32.514382,25.2045902 L34.0415169,27.8485246 Z M31.756573,24.2085246 C32.309382,24.2085246 32.5166854,23.9009836 32.5166854,23.5521311 C32.5166854,23.2032787 32.3070787,22.9118033 31.756573,22.9118033 L30.072809,22.9118033 L30.072809,24.2085246 L31.756573,24.2085246 Z" id="Shape" fill="#AAA59C"></path>
                        <path d="M20.9007865,11.8770492 L35.6492697,0 L27.9698315,16.0655738 L20.9007865,11.8770492 Z M15.7089888,8.70983607 L16.605,9.26295082 L35.6492697,0 L15.7089888,8.70983607 Z M11.2289326,5.85934426 L35.6492697,0 L4.715,3.12131148 L11.2289326,5.85934426 Z" id="Shape" fill="#CCCAC6"></path>
                        <path d="M20.9007865,11.8770492 L17.2361236,18.2527869 L22.6444382,12.9052459 L20.9007865,11.8770492 Z M16.605,9.26295082 L15.7089888,8.70983607 L11.2289326,14.475082 L16.7408989,11.1977049 L16.605,9.26295082 Z" id="Shape" fill="#AAA59C"></path>
                        <path d="M20.9007865,11.8770492 L17.2361236,18.2527869 L16.605,9.26295082 L35.6492697,0 L20.9007865,11.8770492 Z M11.2266292,14.475082 L15.7089888,8.70983607 L35.6492697,0 L11.2335393,5.85934426 L11.2266292,14.475082 Z" id="Shape" fill="#B7B3AE"></path>
                    </g>
                </g>
            </g>
        </g>
    </g>
</svg>
